<svg xmlns="http://www.w3.org/2000/svg" xmlns:xlink="http://www.w3.org/1999/xlink" width="269" zoomAndPan="magnify" viewBox="0 0 201.75 42" height="56" preserveAspectRatio="xMidYMid meet" version="1.0"><defs><g/><clipPath id="1ca497880d"><path d="M 21.113281 0.160156 L 53.808594 0.160156 L 53.808594 41.023438 L 21.113281 41.023438 Z M 21.113281 0.160156 " clip-rule="nonzero"/></clipPath><clipPath id="ac5d499887"><path d="M 18.019531 18 L 34 18 L 34 26 L 18.019531 26 Z M 18.019531 18 " clip-rule="nonzero"/></clipPath><clipPath id="04c6d96238"><path d="M 18.019531 15 L 27 15 L 27 20 L 18.019531 20 Z M 18.019531 15 " clip-rule="nonzero"/></clipPath><clipPath id="03c5a354cd"><path d="M 48 15 L 56.894531 15 L 56.894531 20 L 48 20 Z M 48 15 " clip-rule="nonzero"/></clipPath><clipPath id="f3144bf149"><path d="M 47.121094 18.652344 L 56.890625 18.652344 L 56.890625 34.640625 L 47.121094 34.640625 Z M 47.121094 18.652344 " clip-rule="nonzero"/></clipPath><clipPath id="1a3e56bc96"><path d="M 157 11 L 180 11 L 180 41.023438 L 157 41.023438 Z M 157 11 " clip-rule="nonzero"/></clipPath></defs><g clip-path="url(#1ca497880d)"><path fill="#bb2e34" d="M 36.605469 1.683594 L 34.773438 0.617188 C 33.730469 0.0078125 32.441406 0.0078125 31.394531 0.617188 L 23.761719 5.066406 C 22.171875 5.988281 21.195312 7.699219 21.195312 9.546875 L 21.195312 25.523438 C 21.199219 29.492188 23.300781 33.160156 26.707031 35.144531 L 36.367188 40.765625 C 37.054688 41.167969 37.90625 41.167969 38.59375 40.765625 L 48.253906 35.144531 C 51.664062 33.160156 53.765625 29.492188 53.769531 25.523438 L 53.769531 9.546875 C 53.769531 7.699219 52.792969 5.992188 51.207031 5.066406 L 43.566406 0.617188 C 42.523438 0.0078125 41.234375 0.0078125 40.1875 0.617188 L 38.359375 1.683594 C 37.816406 2 37.148438 2 36.605469 1.683594 " fill-opacity="1" fill-rule="nonzero"/></g><path fill="#e44837" d="M 51.207031 5.066406 L 43.570312 0.617188 C 42.523438 0.0078125 41.234375 0.0078125 40.191406 0.617188 L 38.359375 1.683594 C 37.816406 2 37.148438 2 36.605469 1.683594 L 34.773438 0.617188 C 33.730469 0.0078125 32.441406 0.0078125 31.394531 0.617188 L 23.761719 5.066406 C 22.171875 5.988281 21.195312 7.699219 21.195312 9.546875 L 21.195312 25.523438 C 21.199219 29.492188 23.300781 33.160156 26.707031 35.144531 L 32.777344 38.675781 C 34.125 39.464844 35.851562 38.996094 36.628906 37.636719 C 36.636719 37.628906 36.640625 37.621094 36.644531 37.613281 L 36.746094 37.425781 C 37.710938 35.691406 36.632812 33.546875 34.683594 33.230469 C 33.914062 33.117188 33.195312 32.777344 32.617188 32.253906 C 31.753906 31.503906 31.21875 30.441406 31.128906 29.296875 L 30.71875 29.058594 C 29.726562 28.476562 29.113281 27.40625 29.109375 26.246094 L 29.109375 24.34375 C 29.109375 23.6875 29.308594 23.042969 29.679688 22.503906 L 29.347656 22.304688 C 28.257812 21.667969 27.585938 20.496094 27.582031 19.226562 L 27.582031 11.800781 C 27.582031 10.53125 28.253906 9.355469 29.34375 8.722656 L 31.890625 7.234375 C 32.980469 6.601562 34.324219 6.601562 35.414062 7.234375 L 37.074219 8.203125 C 37.324219 8.347656 37.628906 8.347656 37.878906 8.203125 L 39.535156 7.234375 C 40.628906 6.601562 41.972656 6.601562 43.0625 7.234375 L 45.613281 8.71875 C 46.496094 9.199219 47.113281 10.058594 47.28125 11.054688 C 47.585938 12.53125 48.859375 13.605469 50.355469 13.644531 L 50.417969 13.644531 C 52.210938 13.695312 53.707031 12.273438 53.761719 10.464844 C 53.761719 10.429688 53.761719 10.398438 53.761719 10.367188 L 53.761719 9.542969 C 53.761719 7.699219 52.789062 5.992188 51.207031 5.066406 " fill-opacity="1" fill-rule="nonzero"/><path fill="#f47822" d="M 27.269531 31.945312 C 27.019531 31.945312 26.785156 31.828125 26.632812 31.628906 C 25.554688 30.21875 25.296875 28.339844 25.953125 26.6875 C 26.117188 26.269531 26.585938 26.070312 27 26.238281 C 27.414062 26.40625 27.613281 26.878906 27.445312 27.292969 C 27 28.414062 27.175781 29.683594 27.90625 30.636719 C 28.179688 30.988281 28.113281 31.5 27.761719 31.773438 C 27.621094 31.886719 27.449219 31.945312 27.269531 31.945312 " fill-opacity="1" fill-rule="nonzero"/><path fill="#f47822" d="M 28.355469 5.851562 C 28.121094 5.851562 27.898438 5.75 27.746094 5.570312 C 26.960938 4.664062 25.757812 4.242188 24.582031 4.464844 C 24.144531 4.535156 23.730469 4.234375 23.660156 3.792969 C 23.589844 3.367188 23.867188 2.960938 24.285156 2.867188 C 26.019531 2.539062 27.800781 3.164062 28.960938 4.507812 C 29.253906 4.847656 29.21875 5.359375 28.882812 5.652344 C 28.734375 5.78125 28.546875 5.851562 28.355469 5.851562 " fill-opacity="1" fill-rule="nonzero"/><path fill="#f47822" d="M 25.691406 17.570312 C 25.421875 17.574219 25.164062 17.453125 24.988281 17.25 C 24.097656 16.214844 22.726562 15.734375 21.390625 15.988281 C 20.886719 16.085938 20.398438 15.753906 20.300781 15.242188 C 20.207031 14.734375 20.535156 14.246094 21.039062 14.144531 C 21.039062 14.144531 21.042969 14.144531 21.046875 14.144531 C 23.03125 13.773438 25.0625 14.484375 26.390625 16.019531 C 26.726562 16.410156 26.6875 17 26.300781 17.339844 C 26.128906 17.488281 25.914062 17.570312 25.691406 17.570312 " fill-opacity="1" fill-rule="nonzero"/><path fill="#f47822" d="M 31.871094 20.964844 C 31.730469 20.675781 31.457031 20.480469 31.140625 20.441406 C 31.015625 20.429688 30.890625 20.417969 30.773438 20.410156 C 26.449219 18.601562 21.492188 20.675781 19.703125 25.035156 C 19.019531 26.703125 18.875 28.542969 19.289062 30.296875 C 19.386719 30.71875 19.761719 31.019531 20.191406 31.019531 C 20.304688 31.019531 20.414062 31 20.515625 30.960938 C 20.960938 30.78125 21.207031 30.296875 21.089844 29.824219 C 20.6875 28.113281 20.976562 26.316406 21.894531 24.820312 C 22.207031 24.300781 22.589844 23.828125 23.035156 23.414062 C 23.140625 23.3125 23.308594 23.320312 23.40625 23.429688 C 23.496094 23.523438 23.5 23.667969 23.425781 23.769531 C 21.113281 26.851562 21.136719 31.117188 23.480469 34.171875 C 23.796875 34.578125 24.382812 34.652344 24.785156 34.332031 C 24.800781 34.320312 24.8125 34.308594 24.828125 34.296875 C 25.195312 33.953125 25.238281 33.378906 24.925781 32.984375 C 22.707031 30.058594 23.257812 25.867188 26.160156 23.628906 C 27.359375 22.707031 28.832031 22.222656 30.339844 22.261719 C 30.535156 22.355469 30.730469 22.457031 30.921875 22.574219 C 31.367188 22.835938 31.9375 22.6875 32.203125 22.242188 C 32.269531 22.125 32.3125 21.996094 32.328125 21.863281 C 32.371094 21.496094 32.191406 21.140625 31.871094 20.964844 " fill-opacity="1" fill-rule="nonzero"/><g clip-path="url(#ac5d499887)"><path fill="#f47822" d="M 18.949219 25.742188 C 18.433594 25.742188 18.019531 25.324219 18.019531 24.808594 C 18.019531 24.707031 18.035156 24.609375 18.066406 24.511719 C 19.539062 20.03125 24.332031 17.601562 28.773438 19.082031 C 30.871094 19.785156 32.613281 21.285156 33.632812 23.261719 C 33.867188 23.722656 33.691406 24.289062 33.234375 24.527344 C 32.777344 24.765625 32.21875 24.585938 31.980469 24.125 C 30.300781 20.851562 26.308594 19.574219 23.0625 21.273438 C 21.53125 22.074219 20.371094 23.445312 19.828125 25.097656 C 19.707031 25.480469 19.351562 25.742188 18.949219 25.742188 " fill-opacity="1" fill-rule="nonzero"/></g><g clip-path="url(#04c6d96238)"><path fill="#f47822" d="M 19.777344 19.929688 C 19.265625 19.929688 18.847656 19.511719 18.847656 18.996094 C 18.847656 18.746094 18.945312 18.507812 19.121094 18.332031 C 20.867188 16.566406 23.292969 15.660156 25.757812 15.847656 C 26.273438 15.886719 26.65625 16.339844 26.617188 16.855469 C 26.578125 17.375 26.132812 17.761719 25.621094 17.722656 C 23.695312 17.570312 21.800781 18.277344 20.433594 19.652344 C 20.261719 19.828125 20.023438 19.929688 19.777344 19.929688 " fill-opacity="1" fill-rule="nonzero"/></g><path fill="#fab63c" d="M 22.648438 16.207031 C 22.390625 16.304688 22.257812 16.589844 22.355469 16.851562 C 22.359375 16.859375 22.363281 16.871094 22.367188 16.882812 C 22.480469 17.113281 22.75 17.21875 22.984375 17.117188 C 23.660156 16.835938 24.410156 16.777344 25.121094 16.949219 C 25.34375 17.003906 25.578125 16.890625 25.671875 16.675781 L 25.671875 16.667969 C 25.777344 16.425781 25.671875 16.144531 25.433594 16.035156 C 25.40625 16.023438 25.382812 16.015625 25.359375 16.007812 C 24.457031 15.785156 23.507812 15.855469 22.648438 16.207031 " fill-opacity="1" fill-rule="nonzero"/><path fill="#bb2e34" d="M 30.980469 22.316406 C 30.945312 21.871094 30.5625 21.535156 30.121094 21.566406 C 30.070312 21.566406 30.019531 21.578125 29.972656 21.582031 C 29.578125 21.382812 29.164062 21.234375 28.734375 21.144531 C 28.921875 21.136719 29.101562 21.0625 29.242188 20.9375 C 29.566406 20.617188 29.582031 20.097656 29.28125 19.761719 C 28.125 18.460938 26.382812 17.859375 24.679688 18.171875 C 24.257812 18.238281 23.957031 18.617188 23.980469 19.046875 C 24.015625 19.492188 24.40625 19.828125 24.847656 19.789062 C 24.878906 19.789062 24.914062 19.78125 24.941406 19.777344 C 25.472656 19.664062 26.023438 19.6875 26.542969 19.84375 C 27.203125 20.054688 27.1875 21.011719 26.515625 21.179688 C 26.195312 21.257812 25.886719 21.371094 25.585938 21.511719 C 25.203125 21.683594 25.011719 22.121094 25.136719 22.523438 C 25.28125 22.949219 25.738281 23.171875 26.160156 23.023438 C 26.191406 23.015625 26.21875 23 26.25 22.988281 C 26.375 22.925781 26.503906 22.871094 26.636719 22.828125 C 26.738281 22.792969 26.84375 22.84375 26.878906 22.945312 C 26.898438 23.011719 26.886719 23.085938 26.839844 23.136719 C 26.511719 23.484375 26.238281 23.875 26.027344 24.300781 C 25.835938 24.664062 25.941406 25.117188 26.273438 25.359375 C 26.640625 25.613281 27.140625 25.523438 27.394531 25.15625 C 27.417969 25.121094 27.4375 25.089844 27.457031 25.050781 C 27.898438 24.164062 28.703125 23.511719 29.660156 23.273438 C 30.035156 23.46875 30.492188 23.339844 30.710938 22.976562 C 30.894531 22.808594 30.996094 22.566406 30.980469 22.316406 " fill-opacity="1" fill-rule="nonzero"/><path fill="#bb2e34" d="M 29.332031 16.988281 C 28.949219 16.988281 28.621094 16.71875 28.542969 16.339844 C 28.304688 15.160156 27.460938 14.195312 26.332031 13.808594 C 25.910156 13.664062 25.6875 13.203125 25.828125 12.777344 C 25.972656 12.351562 26.429688 12.125 26.851562 12.269531 C 28.523438 12.847656 29.765625 14.273438 30.121094 16.019531 C 30.210938 16.457031 29.925781 16.886719 29.492188 16.976562 C 29.4375 16.988281 29.386719 16.992188 29.332031 16.992188 L 29.332031 16.988281 " fill-opacity="1" fill-rule="nonzero"/><path fill="#fab63c" d="M 22.328125 27.097656 L 22.320312 27.097656 C 22.101562 26.992188 21.988281 26.742188 22.054688 26.507812 C 22.25 25.832031 22.53125 25.183594 22.886719 24.578125 C 23.035156 24.34375 23.339844 24.273438 23.570312 24.421875 C 23.632812 24.460938 23.683594 24.515625 23.722656 24.578125 L 23.722656 24.585938 C 23.816406 24.738281 23.816406 24.929688 23.722656 25.085938 C 23.414062 25.617188 23.167969 26.191406 22.996094 26.785156 C 22.914062 27.046875 22.636719 27.195312 22.375 27.113281 C 22.359375 27.109375 22.34375 27.105469 22.328125 27.097656 " fill-opacity="1" fill-rule="nonzero"/><path fill="#fab63c" d="M 20.976562 22.890625 C 21.441406 22.3125 21.980469 21.800781 22.578125 21.367188 C 22.804688 21.207031 23.113281 21.261719 23.269531 21.488281 C 23.296875 21.53125 23.320312 21.578125 23.335938 21.628906 L 23.335938 21.644531 C 23.390625 21.84375 23.320312 22.054688 23.152344 22.179688 C 22.628906 22.5625 22.152344 23.015625 21.742188 23.523438 C 21.566406 23.734375 21.253906 23.757812 21.046875 23.582031 C 21.039062 23.574219 21.03125 23.570312 21.023438 23.5625 L 21.015625 23.554688 C 20.835938 23.378906 20.816406 23.089844 20.976562 22.890625 " fill-opacity="1" fill-rule="nonzero"/><path fill="#fab63c" d="M 20.542969 24.476562 L 20.570312 24.496094 C 20.78125 24.625 20.855469 24.894531 20.75 25.121094 L 20.75 25.128906 C 20.640625 25.355469 20.378906 25.460938 20.148438 25.371094 L 20.117188 25.359375 C 19.871094 25.265625 19.746094 24.988281 19.835938 24.742188 C 19.839844 24.730469 19.847656 24.71875 19.851562 24.707031 L 19.863281 24.683594 C 19.976562 24.441406 20.261719 24.339844 20.5 24.457031 C 20.515625 24.460938 20.527344 24.46875 20.542969 24.476562 " fill-opacity="1" fill-rule="nonzero"/><path fill="#e44837" d="M 47.644531 31.945312 C 47.199219 31.945312 46.839844 31.578125 46.839844 31.132812 C 46.839844 30.953125 46.898438 30.777344 47.007812 30.636719 C 47.539062 29.949219 47.785156 29.082031 47.695312 28.214844 C 47.65625 27.769531 47.984375 27.375 48.425781 27.339844 C 48.859375 27.300781 49.242188 27.617188 49.296875 28.050781 C 49.429688 29.332031 49.066406 30.613281 48.28125 31.632812 C 48.128906 31.828125 47.894531 31.945312 47.644531 31.945312 " fill-opacity="1" fill-rule="nonzero"/><g clip-path="url(#03c5a354cd)"><path fill="#e44837" d="M 55.136719 19.929688 C 54.890625 19.929688 54.652344 19.832031 54.476562 19.65625 C 53.113281 18.277344 51.21875 17.570312 49.292969 17.71875 C 48.78125 17.757812 48.335938 17.371094 48.296875 16.851562 C 48.257812 16.335938 48.640625 15.882812 49.152344 15.84375 C 51.621094 15.65625 54.042969 16.566406 55.789062 18.332031 C 56.152344 18.699219 56.152344 19.292969 55.789062 19.65625 C 55.617188 19.832031 55.378906 19.929688 55.132812 19.929688 L 55.136719 19.929688 " fill-opacity="1" fill-rule="nonzero"/></g><g clip-path="url(#f3144bf149)"><path fill="#e44837" d="M 56.839844 24.488281 C 55.570312 20.667969 51.832031 18.257812 47.863281 18.707031 C 47.640625 18.730469 47.464844 18.917969 47.453125 19.144531 L 47.453125 19.152344 C 47.4375 19.410156 47.632812 19.632812 47.890625 19.652344 C 47.910156 19.652344 47.929688 19.652344 47.949219 19.652344 C 48.496094 19.613281 49.042969 19.664062 49.570312 19.804688 C 49.976562 19.90625 50.242188 20.300781 50.1875 20.722656 C 50.121094 21.164062 49.707031 21.46875 49.269531 21.398438 C 49.238281 21.394531 49.207031 21.386719 49.179688 21.378906 C 48.746094 21.261719 48.292969 21.230469 47.847656 21.289062 C 47.480469 21.34375 47.191406 21.636719 47.136719 22.003906 C 47.078125 22.390625 47.28125 22.769531 47.632812 22.9375 C 50.914062 24.554688 52.277344 28.550781 50.675781 31.863281 C 50.484375 32.261719 50.25 32.636719 49.984375 32.988281 C 49.671875 33.382812 49.710938 33.957031 50.082031 34.300781 C 50.464844 34.644531 51.054688 34.609375 51.394531 34.21875 C 51.40625 34.207031 51.417969 34.191406 51.425781 34.175781 C 53.816406 31.0625 53.792969 26.707031 51.367188 23.625 C 51.28125 23.515625 51.300781 23.359375 51.40625 23.273438 C 51.5 23.195312 51.628906 23.199219 51.722656 23.277344 C 53.570312 24.90625 54.375 27.429688 53.816406 29.839844 C 53.683594 30.339844 53.972656 30.851562 54.46875 30.988281 C 54.546875 31.011719 54.632812 31.023438 54.714844 31.023438 C 55.144531 31.023438 55.519531 30.726562 55.617188 30.304688 C 55.996094 28.730469 55.917969 27.085938 55.398438 25.554688 C 55.679688 25.769531 56.054688 25.808594 56.371094 25.652344 C 56.792969 25.4375 56.996094 24.941406 56.839844 24.488281 " fill-opacity="1" fill-rule="nonzero"/></g><path fill="#f47822" d="M 52.585938 27.097656 L 52.59375 27.097656 C 52.8125 26.992188 52.925781 26.742188 52.859375 26.507812 C 52.664062 25.832031 52.382812 25.183594 52.027344 24.578125 C 51.878906 24.34375 51.574219 24.273438 51.34375 24.421875 C 51.28125 24.460938 51.226562 24.515625 51.1875 24.578125 L 51.1875 24.585938 C 51.097656 24.738281 51.097656 24.929688 51.1875 25.085938 C 51.5 25.617188 51.746094 26.191406 51.917969 26.785156 C 52 27.046875 52.277344 27.195312 52.539062 27.113281 C 52.554688 27.109375 52.570312 27.105469 52.585938 27.097656 " fill-opacity="1" fill-rule="nonzero"/><path fill="#f47822" d="M 53.933594 22.890625 C 53.46875 22.3125 52.929688 21.800781 52.332031 21.367188 C 52.109375 21.207031 51.796875 21.261719 51.640625 21.488281 C 51.613281 21.53125 51.589844 21.578125 51.574219 21.628906 L 51.574219 21.644531 C 51.519531 21.84375 51.59375 22.054688 51.757812 22.179688 C 52.285156 22.5625 52.761719 23.015625 53.171875 23.523438 C 53.347656 23.734375 53.660156 23.757812 53.867188 23.582031 C 53.875 23.574219 53.882812 23.570312 53.886719 23.5625 L 53.894531 23.554688 C 54.078125 23.378906 54.09375 23.089844 53.933594 22.890625 " fill-opacity="1" fill-rule="nonzero"/><path fill="#f47822" d="M 54.371094 24.476562 L 54.34375 24.496094 C 54.132812 24.625 54.054688 24.894531 54.164062 25.121094 L 54.164062 25.128906 C 54.269531 25.355469 54.535156 25.460938 54.765625 25.371094 L 54.796875 25.359375 C 55.042969 25.265625 55.167969 24.988281 55.074219 24.742188 C 55.070312 24.730469 55.066406 24.71875 55.0625 24.707031 L 55.050781 24.683594 C 54.9375 24.441406 54.652344 24.339844 54.414062 24.457031 C 54.398438 24.460938 54.386719 24.46875 54.371094 24.476562 " fill-opacity="1" fill-rule="nonzero"/><path fill="#bb2e34" d="M 50.757812 10.808594 C 50.28125 10.808594 49.890625 10.417969 49.890625 9.933594 C 49.890625 9.660156 50.015625 9.402344 50.234375 9.238281 C 51.296875 8.417969 52.636719 8.066406 53.960938 8.253906 C 54.433594 8.320312 54.765625 8.761719 54.699219 9.238281 C 54.632812 9.71875 54.195312 10.050781 53.722656 9.984375 C 52.855469 9.863281 51.976562 10.09375 51.28125 10.628906 C 51.132812 10.746094 50.949219 10.808594 50.757812 10.808594 " fill-opacity="1" fill-rule="nonzero"/><path fill="#bb2e34" d="M 42.710938 3.984375 L 42.710938 3.964844 C 42.667969 3.488281 42.246094 3.140625 41.777344 3.1875 C 41.691406 3.195312 41.605469 3.214844 41.527344 3.25 C 41.402344 3.300781 41.28125 3.363281 41.164062 3.429688 L 41.105469 3.464844 C 40.714844 3.695312 40.351562 3.972656 40.027344 4.296875 C 39.890625 4.429688 39.675781 4.421875 39.546875 4.285156 C 39.453125 4.191406 39.425781 4.046875 39.472656 3.921875 C 39.777344 3.179688 40.3125 2.5625 41 2.160156 L 41.011719 2.152344 L 41.054688 2.128906 C 41.113281 2.09375 41.171875 2.066406 41.234375 2.039062 C 41.574219 1.890625 41.777344 1.535156 41.738281 1.164062 L 41.738281 1.152344 C 41.691406 0.675781 41.273438 0.328125 40.800781 0.371094 C 40.714844 0.378906 40.632812 0.402344 40.550781 0.4375 C 40.425781 0.488281 40.304688 0.550781 40.1875 0.617188 L 40.128906 0.652344 C 38.476562 1.621094 37.460938 3.402344 37.460938 5.332031 L 37.460938 17.097656 C 37.789062 17.058594 38.113281 17.011719 38.433594 16.960938 L 38.433594 19.910156 C 39.015625 19.84375 39.59375 19.753906 40.167969 19.640625 L 40.167969 8.144531 C 40.171875 6.839844 40.859375 5.632812 41.980469 4.980469 L 41.988281 4.972656 L 42.035156 4.949219 C 42.09375 4.914062 42.152344 4.882812 42.210938 4.859375 C 42.550781 4.707031 42.753906 4.351562 42.710938 3.984375 " fill-opacity="1" fill-rule="nonzero"/><path fill="#f89b2e" d="M 36.398438 9.390625 L 34.738281 8.425781 C 34.070312 8.035156 33.242188 8.035156 32.574219 8.425781 L 30.03125 9.90625 C 29.363281 10.296875 28.949219 11.015625 28.949219 11.796875 L 28.949219 19.226562 C 28.949219 20.007812 29.363281 20.726562 30.03125 21.117188 L 36.40625 24.828125 C 37.074219 25.21875 37.898438 25.21875 38.570312 24.828125 L 44.945312 21.117188 C 45.613281 20.726562 46.027344 20.007812 46.027344 19.226562 L 46.027344 11.800781 C 46.027344 11.019531 45.609375 10.292969 44.9375 9.90625 L 42.386719 8.425781 C 41.71875 8.035156 40.894531 8.035156 40.222656 8.425781 L 38.5625 9.390625 C 37.894531 9.78125 37.070312 9.78125 36.398438 9.390625 " fill-opacity="1" fill-rule="nonzero"/><path fill="#fbcb65" d="M 30.707031 19.925781 C 30.457031 19.78125 30.304688 19.515625 30.304688 19.226562 L 30.304688 11.800781 C 30.304688 11.511719 30.457031 11.246094 30.707031 11.101562 L 31.582031 10.589844 C 31.394531 10.171875 31.175781 9.769531 30.933594 9.382812 L 30.03125 9.90625 C 29.363281 10.296875 28.949219 11.015625 28.949219 11.796875 L 28.949219 19.226562 C 28.949219 20.007812 29.363281 20.726562 30.03125 21.117188 L 30.296875 21.273438 C 30.613281 21.460938 31.023438 21.355469 31.210938 21.035156 L 31.21875 21.023438 C 31.410156 20.699219 31.300781 20.28125 30.980469 20.089844 C 30.976562 20.089844 30.976562 20.085938 30.972656 20.085938 L 30.707031 19.925781 " fill-opacity="1" fill-rule="nonzero"/><path fill="#f47822" d="M 46.019531 11.800781 L 46.019531 19.226562 C 46.019531 20.003906 45.609375 20.726562 44.9375 21.117188 L 40.523438 23.6875 C 40.253906 23.125 39.988281 22.554688 39.742188 21.980469 L 44.007812 19.492188 C 44.105469 19.4375 44.164062 19.335938 44.164062 19.226562 L 44.164062 11.800781 C 44.164062 11.691406 44.105469 11.585938 44.007812 11.53125 L 41.457031 10.042969 C 41.414062 10.015625 41.359375 10.003906 41.304688 10.003906 C 41.253906 10.003906 41.199219 10.015625 41.152344 10.042969 L 39.492188 11.011719 C 39.398438 11.066406 39.304688 11.117188 39.207031 11.164062 C 38.742188 11.386719 38.449219 11.859375 38.453125 12.378906 C 38.460938 12.917969 38.054688 13.371094 37.523438 13.417969 C 36.972656 13.453125 36.496094 13.035156 36.457031 12.480469 C 36.457031 12.457031 36.457031 12.4375 36.457031 12.417969 L 36.457031 12.355469 C 36.457031 11.84375 36.167969 11.375 35.714844 11.148438 C 35.632812 11.109375 35.550781 11.066406 35.472656 11.023438 L 33.8125 10.058594 C 33.71875 10.003906 33.601562 10.003906 33.507812 10.058594 L 31.34375 11.304688 C 31.097656 11.449219 30.800781 11.472656 30.539062 11.363281 C 30.058594 11.175781 29.828125 10.628906 30.015625 10.148438 C 30.09375 9.949219 30.238281 9.785156 30.421875 9.679688 L 30.53125 9.617188 L 32.578125 8.425781 C 33.246094 8.035156 34.070312 8.035156 34.738281 8.425781 L 36.402344 9.390625 C 37.070312 9.78125 37.894531 9.78125 38.566406 9.390625 L 40.222656 8.425781 C 40.894531 8.035156 41.71875 8.035156 42.386719 8.425781 L 44.9375 9.90625 C 45.609375 10.296875 46.023438 11.019531 46.019531 11.800781 " fill-opacity="1" fill-rule="nonzero"/><path fill="#fab63c" d="M 32.476562 26.503906 L 42.433594 26.503906 L 42.433594 28.964844 C 42.433594 30.605469 41.113281 31.9375 39.488281 31.9375 L 35.425781 31.9375 C 33.796875 31.9375 32.476562 30.605469 32.476562 28.964844 L 32.476562 26.503906 " fill-opacity="1" fill-rule="nonzero"/><path fill="#fce29f" d="M 41.320312 28.132812 L 41.320312 28.964844 C 41.320312 29.984375 40.5 30.8125 39.488281 30.8125 L 35.425781 30.8125 C 35.011719 30.816406 34.613281 30.671875 34.289062 30.410156 C 34.070312 30.246094 33.761719 30.269531 33.570312 30.464844 L 33.5625 30.472656 C 33.34375 30.683594 33.335938 31.03125 33.546875 31.25 C 33.5625 31.269531 33.582031 31.285156 33.601562 31.300781 C 34.121094 31.714844 34.765625 31.941406 35.425781 31.9375 L 39.488281 31.9375 C 41.117188 31.9375 42.4375 30.605469 42.4375 28.964844 L 42.4375 28.191406 C 42.0625 28.171875 41.691406 28.152344 41.320312 28.132812 " fill-opacity="1" fill-rule="nonzero"/><path fill="#fce29f" d="M 37.664062 31.097656 C 37.277344 30.957031 36.945312 30.683594 36.730469 30.328125 C 36.582031 30.09375 36.285156 30.011719 36.039062 30.128906 L 36.027344 30.128906 C 35.75 30.25 35.625 30.574219 35.746094 30.851562 C 35.753906 30.875 35.765625 30.898438 35.777344 30.921875 C 35.972656 31.234375 36.226562 31.511719 36.523438 31.734375 C 37.40625 31.558594 38.300781 31.601562 39.1875 31.65625 L 37.664062 31.097656 " fill-opacity="1" fill-rule="nonzero"/><path fill="#f68b28" d="M 45.371094 24.058594 L 45.371094 26.25 C 45.367188 27.253906 44.839844 28.179688 43.980469 28.683594 L 42.65625 29.453125 C 42.558594 29.511719 42.464844 29.5625 42.367188 29.609375 C 42.066406 30.96875 40.871094 31.9375 39.488281 31.9375 L 39.242188 31.9375 C 38.953125 31.9375 38.710938 31.714844 38.691406 31.421875 L 38.691406 31.410156 C 38.667969 31.105469 38.890625 30.839844 39.195312 30.816406 C 39.210938 30.816406 39.226562 30.8125 39.242188 30.8125 L 39.503906 30.8125 C 40.175781 30.808594 40.242188 29.816406 39.582031 29.699219 C 38.894531 29.582031 38.199219 29.527344 37.503906 29.527344 C 36.527344 29.53125 35.554688 29.636719 34.597656 29.847656 C 34.371094 29.894531 34.136719 29.921875 33.902344 29.921875 C 33.324219 29.917969 32.757812 29.753906 32.261719 29.453125 L 30.9375 28.683594 C 30.078125 28.179688 29.546875 27.253906 29.546875 26.25 L 29.546875 24.058594 L 45.371094 24.058594 " fill-opacity="1" fill-rule="nonzero"/><path fill="#ea6d2a" d="M 44.441406 24.058594 L 29.542969 24.058594 L 29.542969 26.253906 C 29.542969 27.257812 30.074219 28.183594 30.933594 28.683594 L 32.261719 29.457031 C 32.757812 29.757812 33.328125 29.917969 33.90625 29.921875 C 34.140625 29.921875 34.375 29.898438 34.601562 29.847656 C 35.558594 29.636719 36.53125 29.53125 37.507812 29.53125 C 38.441406 29.527344 39.371094 29.632812 40.285156 29.839844 C 40.523438 29.894531 40.769531 29.921875 41.015625 29.921875 C 41.597656 29.917969 42.164062 29.757812 42.660156 29.457031 L 43.984375 28.683594 C 44.84375 28.183594 45.371094 27.257812 45.375 26.253906 L 45.375 24.058594 L 44.441406 24.058594 " fill-opacity="1" fill-rule="nonzero"/><path fill="#673f48" d="M 33.964844 21.355469 L 40.949219 21.355469 L 40.949219 28.636719 L 33.964844 28.636719 L 33.964844 21.355469 " fill-opacity="1" fill-rule="nonzero"/><path fill="#fbc060" d="M 38.046875 15.949219 C 38.050781 16.257812 37.820312 16.523438 37.515625 16.5625 C 37.191406 16.597656 36.902344 16.359375 36.871094 16.03125 C 36.871094 16.011719 36.867188 15.992188 36.867188 15.972656 L 36.867188 15.949219 C 36.867188 14.828125 35.96875 13.917969 34.855469 13.917969 C 34.363281 13.917969 33.964844 14.320312 33.964844 14.816406 L 33.964844 21.355469 L 40.949219 21.355469 L 40.949219 14.816406 C 40.949219 14.320312 40.554688 13.917969 40.0625 13.917969 C 38.949219 13.914062 38.046875 14.824219 38.046875 15.945312 C 38.046875 15.945312 38.046875 15.945312 38.046875 15.949219 " fill-opacity="1" fill-rule="nonzero"/><path fill="#ea6d2a" d="M 44.503906 15.980469 C 44.324219 15.71875 43.996094 15.609375 43.699219 15.71875 L 42.300781 16.183594 L 42.300781 13.617188 L 42.59375 13.617188 C 42.710938 13.617188 42.804688 13.519531 42.804688 13.402344 C 42.800781 13.339844 42.773438 13.28125 42.726562 13.242188 L 42.371094 12.945312 L 41.695312 12.382812 C 41.5 12.222656 41.210938 12.253906 41.054688 12.453125 C 40.988281 12.53125 40.953125 12.636719 40.953125 12.738281 L 40.953125 22.191406 L 42.300781 22.191406 L 42.300781 19.332031 C 42.304688 18.308594 42.953125 17.40625 43.910156 17.082031 L 44.160156 17 C 44.511719 16.882812 44.703125 16.496094 44.585938 16.140625 C 44.570312 16.085938 44.542969 16.03125 44.511719 15.984375 L 44.503906 15.980469 " fill-opacity="1" fill-rule="nonzero"/><path fill="#ea6d2a" d="M 30.402344 15.980469 C 30.582031 15.71875 30.914062 15.609375 31.210938 15.71875 L 32.609375 16.183594 L 32.609375 13.617188 L 32.3125 13.617188 C 32.199219 13.617188 32.105469 13.519531 32.105469 13.402344 C 32.105469 13.339844 32.132812 13.28125 32.179688 13.242188 L 32.535156 12.945312 L 33.214844 12.382812 C 33.410156 12.222656 33.695312 12.253906 33.855469 12.453125 C 33.917969 12.53125 33.957031 12.636719 33.957031 12.738281 L 33.957031 22.191406 L 32.605469 22.191406 L 32.605469 19.332031 C 32.605469 18.308594 31.957031 17.40625 30.996094 17.082031 L 30.75 17 C 30.394531 16.882812 30.203125 16.496094 30.320312 16.140625 C 30.339844 16.085938 30.363281 16.03125 30.394531 15.984375 L 30.402344 15.980469 " fill-opacity="1" fill-rule="nonzero"/><path fill="#673f48" d="M 44.113281 13.902344 C 44.078125 13.738281 43.933594 13.617188 43.765625 13.621094 L 41.785156 13.621094 C 41.328125 13.621094 40.953125 13.996094 40.953125 14.457031 L 40.953125 15.890625 C 40.949219 16.078125 41.09375 16.234375 41.277344 16.242188 C 41.285156 16.242188 41.289062 16.242188 41.292969 16.242188 C 41.476562 16.238281 41.625 16.089844 41.625 15.902344 L 41.625 15.6875 C 41.621094 15.652344 41.640625 15.621094 41.667969 15.601562 C 41.699219 15.582031 41.734375 15.578125 41.769531 15.59375 C 42.082031 15.730469 42.4375 15.742188 42.757812 15.628906 C 43.304688 15.4375 43.664062 14.917969 43.652344 14.335938 C 43.652344 14.328125 43.660156 14.316406 43.667969 14.308594 C 43.671875 14.300781 43.683594 14.296875 43.691406 14.296875 L 43.777344 14.296875 C 43.964844 14.296875 44.117188 14.144531 44.117188 13.957031 C 44.117188 13.9375 44.113281 13.917969 44.113281 13.902344 " fill-opacity="1" fill-rule="nonzero"/><path fill="#f47822" d="M 42.882812 14.144531 C 42.769531 14.148438 42.675781 14.242188 42.675781 14.359375 C 42.671875 14.570312 42.496094 14.734375 42.289062 14.730469 C 42.082031 14.722656 41.917969 14.550781 41.921875 14.339844 C 41.921875 14.230469 41.832031 14.144531 41.722656 14.144531 C 41.609375 14.144531 41.515625 14.234375 41.511719 14.351562 C 41.511719 14.792969 41.867188 15.152344 42.304688 15.152344 C 42.742188 15.152344 43.097656 14.792969 43.097656 14.351562 C 43.097656 14.238281 43.003906 14.144531 42.890625 14.144531 L 42.882812 14.144531 " fill-opacity="1" fill-rule="nonzero"/><path fill="#fbcb65" d="M 43.09375 14.359375 C 43.09375 14.242188 43.003906 14.148438 42.886719 14.144531 C 42.875 14.144531 42.863281 14.144531 42.851562 14.144531 C 42.75 14.167969 42.675781 14.261719 42.675781 14.367188 L 42.675781 14.375 C 42.660156 14.46875 42.714844 14.554688 42.800781 14.589844 L 42.816406 14.589844 C 42.921875 14.628906 43.039062 14.570312 43.078125 14.460938 C 43.082031 14.441406 43.085938 14.425781 43.085938 14.410156 C 43.089844 14.394531 43.089844 14.378906 43.09375 14.359375 " fill-opacity="1" fill-rule="nonzero"/><path fill="#fbcb65" d="M 41.933594 14.425781 C 41.925781 14.398438 41.921875 14.371094 41.921875 14.339844 C 41.921875 14.230469 41.832031 14.140625 41.722656 14.144531 C 41.609375 14.140625 41.515625 14.234375 41.511719 14.351562 C 41.515625 14.550781 41.589844 14.738281 41.726562 14.886719 C 41.804688 14.96875 41.933594 14.972656 42.019531 14.894531 C 42.039062 14.875 42.058594 14.847656 42.066406 14.820312 C 42.097656 14.746094 42.082031 14.65625 42.023438 14.597656 C 41.980469 14.550781 41.949219 14.492188 41.933594 14.425781 " fill-opacity="1" fill-rule="nonzero"/><path fill="#fbf2cc" d="M 41.507812 14.359375 C 41.503906 14.242188 41.597656 14.148438 41.710938 14.144531 C 41.722656 14.144531 41.734375 14.144531 41.746094 14.144531 C 41.847656 14.167969 41.921875 14.261719 41.921875 14.367188 L 41.921875 14.375 C 41.9375 14.46875 41.886719 14.554688 41.800781 14.589844 L 41.785156 14.589844 C 41.675781 14.628906 41.558594 14.570312 41.523438 14.460938 C 41.515625 14.441406 41.511719 14.425781 41.511719 14.410156 C 41.507812 14.394531 41.507812 14.378906 41.507812 14.359375 " fill-opacity="1" fill-rule="nonzero"/><path fill="#fcdc90" d="M 43.851562 14.289062 C 43.828125 14.292969 43.804688 14.296875 43.777344 14.296875 L 43.6875 14.296875 C 43.675781 14.296875 43.667969 14.300781 43.660156 14.308594 C 43.652344 14.316406 43.648438 14.328125 43.648438 14.339844 C 43.65625 14.917969 43.296875 15.4375 42.753906 15.628906 C 42.429688 15.742188 42.078125 15.730469 41.761719 15.59375 C 41.730469 15.578125 41.691406 15.582031 41.660156 15.601562 C 41.632812 15.621094 41.617188 15.652344 41.617188 15.6875 L 41.617188 15.902344 C 41.617188 16.082031 41.476562 16.234375 41.296875 16.242188 C 42.332031 16.800781 43.621094 16.410156 44.175781 15.363281 C 44.253906 15.21875 44.3125 15.0625 44.355469 14.902344 C 44.417969 14.648438 44.265625 14.394531 44.015625 14.328125 C 44.007812 14.328125 44.003906 14.328125 44 14.324219 C 43.953125 14.304688 43.902344 14.296875 43.851562 14.289062 " fill-opacity="1" fill-rule="nonzero"/><path fill="#673f48" d="M 30.804688 13.902344 C 30.832031 13.738281 30.976562 13.617188 31.144531 13.617188 L 33.128906 13.617188 C 33.585938 13.617188 33.957031 13.992188 33.957031 14.453125 L 33.957031 15.886719 C 33.964844 16.074219 33.820312 16.230469 33.632812 16.238281 C 33.628906 16.238281 33.625 16.238281 33.621094 16.238281 C 33.4375 16.238281 33.285156 16.089844 33.285156 15.902344 C 33.285156 15.898438 33.285156 15.898438 33.285156 15.898438 L 33.285156 15.683594 C 33.285156 15.648438 33.265625 15.617188 33.238281 15.597656 C 33.210938 15.578125 33.171875 15.574219 33.140625 15.589844 C 32.824219 15.726562 32.472656 15.738281 32.148438 15.625 C 31.613281 15.429688 31.257812 14.914062 31.269531 14.335938 C 31.269531 14.328125 31.265625 14.316406 31.257812 14.308594 C 31.25 14.300781 31.242188 14.296875 31.230469 14.296875 L 31.140625 14.296875 C 30.953125 14.296875 30.804688 14.144531 30.800781 13.957031 C 30.800781 13.9375 30.804688 13.917969 30.808594 13.902344 L 30.804688 13.902344 " fill-opacity="1" fill-rule="nonzero"/><path fill="#f47822" d="M 33.199219 14.144531 C 33.082031 14.148438 32.992188 14.242188 32.992188 14.359375 C 32.984375 14.570312 32.8125 14.734375 32.605469 14.730469 C 32.398438 14.722656 32.230469 14.550781 32.238281 14.339844 C 32.234375 14.230469 32.144531 14.144531 32.035156 14.144531 C 31.921875 14.144531 31.828125 14.234375 31.828125 14.351562 C 31.828125 14.792969 32.183594 15.152344 32.621094 15.152344 C 33.058594 15.152344 33.414062 14.792969 33.414062 14.351562 C 33.410156 14.238281 33.316406 14.144531 33.203125 14.144531 L 33.199219 14.144531 " fill-opacity="1" fill-rule="nonzero"/><path fill="#fbcb65" d="M 33.40625 14.359375 C 33.410156 14.242188 33.316406 14.148438 33.203125 14.144531 C 33.191406 14.144531 33.179688 14.144531 33.167969 14.144531 C 33.0625 14.167969 32.992188 14.261719 32.992188 14.367188 L 32.992188 14.375 C 32.976562 14.46875 33.027344 14.554688 33.113281 14.589844 L 33.128906 14.589844 C 33.238281 14.628906 33.355469 14.570312 33.390625 14.460938 C 33.398438 14.441406 33.398438 14.425781 33.402344 14.410156 C 33.40625 14.394531 33.40625 14.378906 33.40625 14.359375 " fill-opacity="1" fill-rule="nonzero"/><path fill="#fbcb65" d="M 32.246094 14.425781 C 32.242188 14.398438 32.238281 14.371094 32.238281 14.339844 C 32.234375 14.230469 32.144531 14.140625 32.035156 14.144531 C 31.921875 14.140625 31.828125 14.234375 31.828125 14.351562 C 31.828125 14.550781 31.90625 14.738281 32.039062 14.886719 C 32.117188 14.96875 32.25 14.972656 32.332031 14.894531 C 32.355469 14.875 32.371094 14.847656 32.382812 14.820312 C 32.410156 14.746094 32.394531 14.65625 32.339844 14.597656 C 32.292969 14.550781 32.261719 14.492188 32.246094 14.425781 " fill-opacity="1" fill-rule="nonzero"/><path fill="#fbf2cc" d="M 31.820312 14.359375 C 31.820312 14.242188 31.910156 14.148438 32.027344 14.144531 C 32.039062 14.144531 32.050781 14.144531 32.0625 14.144531 C 32.164062 14.167969 32.238281 14.261719 32.238281 14.367188 L 32.238281 14.375 C 32.25 14.46875 32.199219 14.554688 32.113281 14.589844 L 32.097656 14.589844 C 31.992188 14.628906 31.871094 14.570312 31.835938 14.460938 C 31.832031 14.441406 31.828125 14.425781 31.828125 14.410156 C 31.824219 14.394531 31.820312 14.378906 31.820312 14.359375 " fill-opacity="1" fill-rule="nonzero"/><path fill="#fcdc90" d="M 31.0625 14.289062 C 31.085938 14.292969 31.109375 14.296875 31.136719 14.296875 L 31.226562 14.296875 C 31.238281 14.296875 31.246094 14.300781 31.253906 14.308594 C 31.261719 14.316406 31.265625 14.328125 31.265625 14.339844 C 31.257812 14.917969 31.617188 15.4375 32.160156 15.628906 C 32.484375 15.742188 32.835938 15.730469 33.152344 15.59375 C 33.183594 15.578125 33.222656 15.582031 33.25 15.601562 C 33.28125 15.621094 33.296875 15.652344 33.296875 15.6875 L 33.296875 15.902344 C 33.296875 16.082031 33.4375 16.234375 33.617188 16.242188 C 32.582031 16.800781 31.292969 16.410156 30.738281 15.363281 C 30.660156 15.21875 30.597656 15.0625 30.558594 14.902344 C 30.492188 14.648438 30.648438 14.394531 30.898438 14.328125 C 30.902344 14.328125 30.910156 14.328125 30.914062 14.324219 C 30.960938 14.304688 31.011719 14.296875 31.0625 14.289062 " fill-opacity="1" fill-rule="nonzero"/><path fill="#fcdc90" d="M 30.472656 24.347656 L 30.472656 26.253906 C 30.472656 26.921875 30.824219 27.542969 31.398438 27.875 L 32.722656 28.644531 C 33.492188 29.09375 34.4375 29.09375 35.207031 28.644531 L 37.460938 27.332031 L 37.460938 24.347656 C 37.464844 23.675781 37.109375 23.058594 36.535156 22.722656 L 34.890625 21.773438 C 34.316406 21.441406 33.609375 21.441406 33.035156 21.773438 L 31.394531 22.722656 C 30.820312 23.0625 30.46875 23.679688 30.472656 24.347656 " fill-opacity="1" fill-rule="nonzero"/><path fill="#fcdc90" d="M 37.460938 24.347656 L 37.460938 27.332031 L 39.707031 28.644531 C 40.476562 29.09375 41.421875 29.09375 42.191406 28.644531 L 43.515625 27.875 C 44.089844 27.539062 44.441406 26.921875 44.441406 26.25 L 44.441406 24.347656 C 44.441406 23.675781 44.089844 23.058594 43.515625 22.722656 L 41.878906 21.773438 C 41.300781 21.441406 40.59375 21.441406 40.019531 21.773438 L 38.382812 22.726562 C 37.8125 23.0625 37.460938 23.679688 37.460938 24.347656 " fill-opacity="1" fill-rule="nonzero"/><path fill="#fbf2cc" d="M 31.957031 26.898438 C 31.726562 26.761719 31.585938 26.519531 31.585938 26.25 L 31.585938 24.347656 C 31.585938 24.078125 31.726562 23.832031 31.957031 23.699219 L 33.59375 22.746094 C 33.707031 22.679688 33.835938 22.644531 33.964844 22.644531 C 34.128906 22.652344 34.28125 22.570312 34.367188 22.429688 L 34.5 22.203125 C 34.621094 21.988281 34.550781 21.714844 34.339844 21.589844 C 34.285156 21.558594 34.222656 21.539062 34.160156 21.53125 C 33.769531 21.492188 33.375 21.574219 33.035156 21.773438 L 31.394531 22.722656 C 30.820312 23.058594 30.464844 23.679688 30.464844 24.347656 L 30.464844 26.253906 C 30.464844 26.925781 30.820312 27.542969 31.394531 27.878906 L 31.941406 28.199219 C 32.207031 28.351562 32.546875 28.261719 32.699219 27.992188 C 32.703125 27.984375 32.707031 27.976562 32.710938 27.964844 L 32.710938 27.957031 C 32.84375 27.691406 32.746094 27.371094 32.492188 27.226562 L 31.957031 26.898438 " fill-opacity="1" fill-rule="nonzero"/><path fill="#fbc060" d="M 43.515625 22.722656 L 43.390625 22.652344 C 43.128906 22.496094 42.789062 22.585938 42.636719 22.851562 C 42.628906 22.863281 42.625 22.875 42.617188 22.886719 L 42.617188 22.894531 C 42.492188 23.160156 42.585938 23.476562 42.839844 23.625 L 42.960938 23.695312 C 43.191406 23.828125 43.332031 24.078125 43.332031 24.34375 L 43.332031 26.25 C 43.332031 26.519531 43.191406 26.761719 42.960938 26.898438 L 41.640625 27.667969 C 41.214844 27.914062 40.695312 27.914062 40.269531 27.667969 L 40.171875 27.609375 C 39.921875 27.464844 39.605469 27.539062 39.441406 27.777344 L 39.433594 27.785156 C 39.261719 28.039062 39.324219 28.386719 39.574219 28.558594 C 39.585938 28.566406 39.601562 28.578125 39.613281 28.582031 L 39.714844 28.644531 C 40.480469 29.089844 41.429688 29.089844 42.199219 28.644531 L 43.519531 27.871094 C 44.09375 27.535156 44.449219 26.917969 44.449219 26.246094 L 44.449219 24.347656 C 44.445312 23.675781 44.089844 23.058594 43.515625 22.722656 " fill-opacity="1" fill-rule="nonzero"/><path fill="#de8c4e" d="M 36.84375 23.960938 L 38.0625 23.960938 L 38.0625 26.84375 C 38.0625 27.183594 37.789062 27.457031 37.453125 27.457031 C 37.117188 27.457031 36.84375 27.183594 36.84375 26.84375 L 36.84375 23.960938 " fill-opacity="1" fill-rule="nonzero"/><path fill="#b0564b" d="M 36.84375 22.191406 L 38.0625 22.191406 L 38.0625 25.074219 C 38.0625 25.414062 37.789062 25.6875 37.453125 25.6875 C 37.117188 25.6875 36.84375 25.414062 36.84375 25.074219 L 36.84375 22.191406 " fill-opacity="1" fill-rule="nonzero"/><path fill="#f89b2e" d="M 36.84375 18.695312 L 34.726562 20.828125 C 34.542969 21.011719 34.542969 21.308594 34.722656 21.496094 C 34.8125 21.582031 34.929688 21.632812 35.054688 21.632812 L 39.855469 21.632812 C 40.113281 21.632812 40.324219 21.421875 40.324219 21.164062 C 40.324219 21.035156 40.277344 20.917969 40.1875 20.828125 L 38.082031 18.695312 C 37.738281 18.351562 37.183594 18.351562 36.84375 18.695312 " fill-opacity="1" fill-rule="nonzero"/><path fill="#e44837" d="M 40.019531 9.113281 L 40.019531 9.097656 C 39.929688 8.738281 39.566406 8.523438 39.214844 8.613281 C 39.15625 8.628906 39.097656 8.652344 39.046875 8.683594 L 38.433594 9.03125 C 37.839844 9.378906 37.105469 9.378906 36.511719 9.03125 L 35.875 8.65625 C 35.59375 8.492188 35.230469 8.558594 35.027344 8.820312 L 35.015625 8.835938 C 34.789062 9.125 34.839844 9.542969 35.128906 9.773438 C 35.152344 9.792969 35.179688 9.808594 35.207031 9.824219 L 35.839844 10.199219 C 35.957031 10.265625 36.078125 10.328125 36.203125 10.378906 C 36.59375 10.546875 36.847656 10.9375 36.84375 11.363281 C 36.835938 11.699219 37.082031 11.988281 37.410156 12.03125 C 37.753906 12.066406 38.0625 11.8125 38.097656 11.464844 C 38.097656 11.445312 38.101562 11.425781 38.101562 11.40625 L 38.101562 11.378906 C 38.097656 10.949219 38.351562 10.5625 38.742188 10.394531 C 38.867188 10.339844 38.988281 10.28125 39.105469 10.214844 L 39.707031 9.863281 C 39.96875 9.710938 40.09375 9.402344 40.019531 9.113281 " fill-opacity="1" fill-rule="nonzero"/><path fill="#fce29f" d="M 34.660156 15.230469 C 35.042969 15.230469 35.355469 15.542969 35.355469 15.933594 L 35.355469 18.941406 C 35.355469 19.328125 35.042969 19.644531 34.660156 19.644531 C 34.277344 19.644531 33.964844 19.328125 33.964844 18.941406 L 33.964844 15.933594 C 33.964844 15.542969 34.277344 15.230469 34.660156 15.230469 " fill-opacity="1" fill-rule="nonzero"/><path fill="#fce29f" d="M 36.386719 16.734375 C 36.640625 16.734375 36.847656 16.945312 36.847656 17.199219 L 36.847656 17.675781 C 36.847656 17.929688 36.640625 18.140625 36.386719 18.140625 C 36.132812 18.140625 35.925781 17.929688 35.925781 17.675781 L 35.925781 17.199219 C 35.925781 16.945312 36.132812 16.734375 36.386719 16.734375 " fill-opacity="1" fill-rule="nonzero"/><path fill="#bb2e34" d="M 41.300781 6.757812 C 40.683594 6.757812 40.074219 6.921875 39.539062 7.234375 L 37.878906 8.203125 C 37.628906 8.347656 37.324219 8.347656 37.074219 8.203125 L 35.414062 7.234375 C 34.324219 6.597656 32.980469 6.597656 31.890625 7.234375 L 29.34375 8.71875 C 28.253906 9.355469 27.582031 10.53125 27.582031 11.800781 L 27.582031 19.226562 C 27.585938 20.496094 28.253906 21.671875 29.347656 22.308594 L 29.679688 22.503906 C 29.308594 23.042969 29.109375 23.6875 29.109375 24.347656 L 29.109375 26.253906 C 29.113281 27.414062 29.726562 28.484375 30.71875 29.0625 L 31.128906 29.300781 C 31.308594 31.566406 33.179688 33.308594 35.425781 33.3125 L 39.488281 33.3125 C 41.738281 33.308594 43.609375 31.566406 43.785156 29.300781 L 44.195312 29.0625 C 45.191406 28.484375 45.804688 27.414062 45.808594 26.253906 L 45.808594 24.347656 C 45.804688 23.695312 45.613281 23.0625 45.25 22.523438 L 45.621094 22.308594 C 46.710938 21.671875 47.378906 20.496094 47.382812 19.226562 L 47.382812 11.800781 C 47.378906 10.53125 46.707031 9.355469 45.617188 8.71875 L 43.070312 7.234375 C 42.53125 6.921875 41.921875 6.757812 41.300781 6.757812 Z M 41.300781 8.132812 C 41.679688 8.132812 42.054688 8.234375 42.382812 8.425781 L 44.9375 9.90625 C 45.605469 10.296875 46.019531 11.015625 46.019531 11.796875 L 46.019531 19.226562 C 46.019531 20.007812 45.605469 20.726562 44.9375 21.117188 L 42.847656 22.335938 L 43.515625 22.722656 C 44.089844 23.058594 44.441406 23.679688 44.441406 24.347656 L 44.441406 26.253906 C 44.441406 26.925781 44.089844 27.542969 43.515625 27.878906 L 42.4375 28.503906 L 42.4375 28.96875 C 42.4375 30.609375 41.117188 31.941406 39.488281 31.941406 L 35.425781 31.941406 C 33.796875 31.941406 32.480469 30.609375 32.480469 28.96875 L 32.480469 28.503906 L 31.398438 27.878906 C 30.824219 27.542969 30.472656 26.925781 30.472656 26.253906 L 30.472656 24.347656 C 30.472656 23.675781 30.824219 23.058594 31.398438 22.722656 L 32.09375 22.320312 L 30.03125 21.117188 C 29.363281 20.726562 28.949219 20.007812 28.949219 19.226562 L 28.949219 11.800781 C 28.949219 11.019531 29.359375 10.296875 30.03125 9.90625 L 32.582031 8.421875 C 33.25 8.03125 34.074219 8.03125 34.746094 8.421875 L 36.40625 9.386719 C 37.074219 9.777344 37.898438 9.777344 38.570312 9.386719 L 40.230469 8.421875 C 40.554688 8.234375 40.925781 8.132812 41.300781 8.132812 " fill-opacity="1" fill-rule="nonzero"/><path fill="#744448" d="M 40.390625 20.679688 L 34.523438 20.679688 C 34.109375 20.675781 33.769531 21.015625 33.769531 21.433594 C 33.769531 21.691406 33.898438 21.929688 34.109375 22.070312 L 35.164062 22.773438 L 37.042969 24.023438 C 37.292969 24.191406 37.621094 24.191406 37.871094 24.023438 L 38.355469 23.703125 L 40.074219 22.550781 L 40.804688 22.066406 C 41.148438 21.832031 41.242188 21.363281 41.007812 21.011719 C 40.871094 20.804688 40.636719 20.679688 40.390625 20.679688 " fill-opacity="1" fill-rule="nonzero"/><path fill="#48303b" d="M 37.035156 24.023438 C 36.738281 23.824219 36.558594 23.488281 36.558594 23.128906 L 36.558594 22.453125 C 36.554688 21.96875 36.164062 21.582031 35.6875 21.582031 C 35.683594 21.582031 35.675781 21.582031 35.671875 21.585938 C 35.390625 21.59375 35.132812 21.746094 34.988281 21.988281 C 34.828125 22.257812 34.90625 22.605469 35.167969 22.773438 L 37.042969 24.023438 C 37.191406 24.125 37.367188 24.167969 37.546875 24.148438 C 37.367188 24.167969 37.1875 24.125 37.035156 24.023438 " fill-opacity="1" fill-rule="nonzero"/><path fill="#48303b" d="M 39.191406 21.585938 C 38.714844 21.613281 38.347656 22.011719 38.355469 22.488281 L 38.355469 23.121094 C 38.355469 23.488281 38.171875 23.832031 37.867188 24.03125 L 38.351562 23.707031 L 39.753906 22.773438 C 40.007812 22.609375 40.089844 22.269531 39.941406 22.003906 C 39.789062 21.734375 39.5 21.570312 39.191406 21.585938 " fill-opacity="1" fill-rule="nonzero"/><path fill="#e44837" d="M 44.117188 34.894531 C 43.671875 34.894531 43.3125 34.53125 43.308594 34.082031 C 43.308594 33.8125 43.441406 33.558594 43.664062 33.410156 L 44.160156 33.066406 C 44.519531 32.804688 45.023438 32.886719 45.28125 33.25 C 45.542969 33.613281 45.460938 34.121094 45.101562 34.382812 C 45.089844 34.390625 45.074219 34.402344 45.0625 34.410156 L 44.566406 34.753906 C 44.433594 34.84375 44.277344 34.894531 44.117188 34.894531 " fill-opacity="1" fill-rule="nonzero"/><path fill="#bb2e34" d="M 45.941406 6.683594 L 45.910156 6.683594 L 44.769531 6.640625 C 44.324219 6.625 43.976562 6.246094 43.996094 5.796875 C 44.011719 5.351562 44.386719 5 44.828125 5.015625 L 45.96875 5.058594 C 46.414062 5.066406 46.769531 5.4375 46.761719 5.886719 C 46.753906 6.335938 46.386719 6.691406 45.941406 6.683594 " fill-opacity="1" fill-rule="nonzero"/><path fill="#f47822" d="M 31.582031 36.15625 C 31.445312 36.15625 31.3125 36.121094 31.191406 36.054688 L 30.640625 35.742188 C 30.253906 35.515625 30.128906 35.015625 30.355469 34.628906 C 30.574219 34.253906 31.042969 34.121094 31.425781 34.324219 L 31.976562 34.636719 C 32.367188 34.855469 32.503906 35.351562 32.285156 35.742188 C 32.144531 36 31.875 36.15625 31.582031 36.15625 " fill-opacity="1" fill-rule="nonzero"/><path fill="#f47822" d="M 25.324219 10.722656 C 25.214844 10.726562 25.105469 10.703125 25.003906 10.65625 L 23.921875 10.183594 C 23.515625 10.003906 23.332031 9.523438 23.507812 9.113281 C 23.6875 8.703125 24.160156 8.511719 24.566406 8.691406 L 25.648438 9.167969 C 26.054688 9.347656 26.242188 9.824219 26.066406 10.238281 C 25.9375 10.53125 25.644531 10.726562 25.324219 10.722656 " fill-opacity="1" fill-rule="nonzero"/><path fill="#f89b2e" d="M 39.730469 24.476562 C 40.027344 24.476562 40.269531 24.71875 40.269531 25.019531 C 40.269531 25.320312 40.027344 25.566406 39.730469 25.566406 C 39.429688 25.566406 39.1875 25.320312 39.1875 25.019531 C 39.1875 24.71875 39.429688 24.476562 39.730469 24.476562 " fill-opacity="1" fill-rule="nonzero"/><path fill="#f47822" d="M 42.878906 24.476562 C 43.175781 24.476562 43.417969 24.71875 43.417969 25.019531 C 43.417969 25.320312 43.175781 25.566406 42.878906 25.566406 C 42.578125 25.566406 42.339844 25.320312 42.339844 25.019531 C 42.339844 24.71875 42.578125 24.476562 42.878906 24.476562 " fill-opacity="1" fill-rule="nonzero"/><path fill="#f89b2e" d="M 41.304688 24.476562 C 41.601562 24.476562 41.84375 24.71875 41.84375 25.019531 C 41.84375 25.320312 41.601562 25.566406 41.304688 25.566406 C 41.003906 25.566406 40.765625 25.320312 40.765625 25.019531 C 40.765625 24.71875 41.003906 24.476562 41.304688 24.476562 " fill-opacity="1" fill-rule="nonzero"/><path fill="#f89b2e" d="M 40.515625 25.835938 C 40.816406 25.835938 41.054688 26.078125 41.054688 26.378906 C 41.054688 26.679688 40.816406 26.925781 40.515625 26.925781 C 40.21875 26.925781 39.976562 26.679688 39.976562 26.378906 C 39.976562 26.078125 40.21875 25.835938 40.515625 25.835938 " fill-opacity="1" fill-rule="nonzero"/><path fill="#f47822" d="M 42.089844 25.835938 C 42.386719 25.835938 42.628906 26.078125 42.628906 26.378906 C 42.628906 26.679688 42.386719 26.925781 42.089844 26.925781 C 41.792969 26.925781 41.550781 26.679688 41.550781 26.378906 C 41.550781 26.078125 41.792969 25.835938 42.089844 25.835938 " fill-opacity="1" fill-rule="nonzero"/><path fill="#f89b2e" d="M 35.183594 24.476562 C 35.484375 24.476562 35.726562 24.71875 35.726562 25.019531 C 35.726562 25.320312 35.484375 25.566406 35.183594 25.566406 C 34.886719 25.566406 34.644531 25.320312 34.644531 25.019531 C 34.644531 24.71875 34.886719 24.476562 35.183594 24.476562 " fill-opacity="1" fill-rule="nonzero"/><path fill="#f89b2e" d="M 32.035156 24.476562 C 32.332031 24.476562 32.574219 24.71875 32.574219 25.019531 C 32.574219 25.320312 32.332031 25.566406 32.035156 25.566406 C 31.738281 25.566406 31.496094 25.320312 31.496094 25.019531 C 31.496094 24.71875 31.738281 24.476562 32.035156 24.476562 " fill-opacity="1" fill-rule="nonzero"/><path fill="#f89b2e" d="M 33.609375 24.476562 C 33.910156 24.476562 34.152344 24.71875 34.152344 25.019531 C 34.152344 25.320312 33.910156 25.566406 33.609375 25.566406 C 33.3125 25.566406 33.070312 25.320312 33.070312 25.019531 C 33.070312 24.71875 33.3125 24.476562 33.609375 24.476562 " fill-opacity="1" fill-rule="nonzero"/><path fill="#f89b2e" d="M 34.398438 25.835938 C 34.695312 25.835938 34.9375 26.078125 34.9375 26.378906 C 34.9375 26.679688 34.695312 26.925781 34.398438 26.925781 C 34.097656 26.925781 33.855469 26.679688 33.855469 26.378906 C 33.855469 26.078125 34.097656 25.835938 34.398438 25.835938 " fill-opacity="1" fill-rule="nonzero"/><path fill="#f89b2e" d="M 32.824219 25.835938 C 33.121094 25.835938 33.363281 26.078125 33.363281 26.378906 C 33.363281 26.679688 33.121094 26.925781 32.824219 26.925781 C 32.523438 26.925781 32.28125 26.679688 32.28125 26.378906 C 32.28125 26.078125 32.523438 25.835938 32.824219 25.835938 " fill-opacity="1" fill-rule="nonzero"/><g fill="#0d2451" fill-opacity="1"><g transform="translate(71.902812, 34.41551)"><g><path d="M 18.332031 -21.824219 L 22.539062 -21.992188 C 21.78125 -27.375 17.070312 -29.730469 12.53125 -29.730469 C 9.125 -29.730469 5.59375 -28.382812 3.617188 -25.820312 C 2.523438 -24.390625 1.976562 -22.707031 1.976562 -20.941406 C 1.976562 -20.730469 2.019531 -20.476562 2.019531 -20.226562 L 2.019531 -20.269531 C 2.480469 -14.128906 7.863281 -13.121094 12.445312 -12.65625 C 15.390625 -12.363281 18.417969 -11.984375 18.921875 -9.753906 C 19.007812 -9.378906 19.046875 -9.039062 19.046875 -8.746094 C 19.046875 -5.71875 15.601562 -3.953125 12.445312 -3.953125 C 9.714844 -3.953125 6.390625 -5.382812 6.097656 -8.117188 L 6.097656 -7.949219 L 6.054688 -8.578125 L 1.765625 -8.492188 L 1.808594 -7.695312 C 2.355469 -2.4375 7.863281 0.253906 12.40625 0.253906 C 17.703125 0.253906 23.335938 -3.027344 23.335938 -8.703125 C 23.335938 -9.292969 23.253906 -10.007812 23.128906 -10.636719 C 21.992188 -15.347656 16.988281 -16.398438 12.953125 -16.902344 C 9.671875 -17.199219 6.265625 -17.617188 6.265625 -21.023438 C 6.265625 -21.867188 6.476562 -22.707031 6.980469 -23.335938 C 8.199219 -24.894531 10.429688 -25.566406 12.445312 -25.566406 C 14.96875 -25.566406 17.746094 -24.429688 18.332031 -21.824219 Z M 18.332031 -21.824219 "/></g></g></g><g fill="#0d2451" fill-opacity="1"><g transform="translate(96.921545, 34.41551)"><g><path d="M 8.535156 -22.75 L 8.535156 -27.792969 L 4.414062 -26.996094 L 4.414062 -22.75 L 1.007812 -22.75 L 1.007812 -19.46875 L 4.414062 -19.46875 L 4.414062 -6.6875 C 4.414062 -1.386719 7.316406 0.125 11.773438 0.125 C 12.363281 0.125 12.992188 0.0859375 13.667969 0.0429688 L 13.667969 -3.40625 C 13.035156 -3.363281 12.445312 -3.320312 11.941406 -3.320312 C 9.882812 -3.320312 8.535156 -3.953125 8.535156 -6.644531 L 8.535156 -19.46875 L 13.539062 -19.46875 L 13.539062 -22.75 Z M 8.535156 -22.75 "/></g></g></g><g fill="#0d2451" fill-opacity="1"><g transform="translate(111.386163, 34.41551)"><g><path d="M 25.480469 -12.363281 C 25.019531 -19.511719 19.46875 -23.085938 13.835938 -23.085938 C 7.820312 -23.085938 2.019531 -19.175781 2.019531 -11.351562 C 2.019531 -3.53125 7.90625 0.421875 13.75 0.421875 C 18.417969 0.421875 23.085938 -2.058594 24.808594 -7.023438 L 20.5625 -7.023438 C 19.214844 -4.457031 16.609375 -3.238281 13.792969 -3.238281 C 10.386719 -3.238281 6.140625 -5.929688 6.140625 -10.386719 L 25.398438 -10.386719 C 25.480469 -10.765625 25.523438 -11.183594 25.523438 -11.648438 C 25.523438 -11.898438 25.523438 -12.109375 25.480469 -12.363281 Z M 21.152344 -13.792969 L 6.308594 -13.792969 C 7.148438 -17.828125 10.511719 -19.46875 13.835938 -19.46875 C 17.113281 -19.46875 20.351562 -17.871094 21.152344 -13.792969 Z M 21.152344 -13.792969 "/></g></g></g><g fill="#0d2451" fill-opacity="1"><g transform="translate(139.138034, 34.41551)"><g><path d="M 7.234375 -19.929688 L 7.234375 -22.707031 L 3.152344 -22.707031 L 3.152344 0 L 7.234375 0 L 7.234375 -12.320312 C 7.234375 -16.484375 10.429688 -19.554688 14.253906 -19.554688 C 14.925781 -19.554688 15.640625 -19.46875 16.355469 -19.257812 L 16.355469 -22.875 C 15.433594 -23.085938 14.550781 -23.210938 13.667969 -23.210938 C 11.144531 -23.210938 8.871094 -22.203125 7.234375 -19.929688 Z M 7.234375 -19.929688 "/></g></g></g><g clip-path="url(#1a3e56bc96)"><g fill="#0d2451" fill-opacity="1"><g transform="translate(156.798314, 34.41551)"><g><path d="M 18.460938 -23.085938 L 14.550781 -12.953125 L 11.898438 -5.550781 L 9.335938 -12.992188 L 5.214844 -23.085938 L 0.839844 -23.085938 L 9.714844 -1.175781 L 6.519531 7.023438 L 10.890625 7.023438 L 22.832031 -23.085938 Z M 18.460938 -23.085938 "/></g></g></g></g></svg>