<svg xmlns="http://www.w3.org/2000/svg" xmlns:xlink="http://www.w3.org/1999/xlink" width="64" zoomAndPan="magnify" viewBox="0 0 48 48" height="64" preserveAspectRatio="xMidYMid meet" version="1.0"><defs><clipPath id="5fc47e763f"><path d="M 5.117188 0.183594 L 42.808594 0.183594 L 42.808594 47.011719 L 5.117188 47.011719 Z M 5.117188 0.183594 " clip-rule="nonzero"/></clipPath><clipPath id="d96c6eb829"><path d="M 1.546875 21 L 20 21 L 20 30 L 1.546875 30 Z M 1.546875 21 " clip-rule="nonzero"/></clipPath><clipPath id="c2413afa35"><path d="M 35.097656 21.351562 L 46.363281 21.351562 L 46.363281 39.65625 L 35.097656 39.65625 Z M 35.097656 21.351562 " clip-rule="nonzero"/></clipPath></defs><g clip-path="url(#5fc47e763f)"><path fill="#bb2e34" d="M 22.976562 1.929688 L 20.863281 0.707031 C 19.660156 0.0078125 18.175781 0.0078125 16.96875 0.707031 L 8.167969 5.796875 C 6.335938 6.855469 5.210938 8.8125 5.210938 10.929688 L 5.210938 29.21875 C 5.214844 33.761719 7.636719 37.960938 11.5625 40.230469 L 22.699219 46.667969 C 23.496094 47.128906 24.472656 47.128906 25.269531 46.667969 L 36.40625 40.230469 C 40.335938 37.960938 42.757812 33.761719 42.761719 29.21875 L 42.761719 10.929688 C 42.761719 8.8125 41.636719 6.855469 39.8125 5.796875 L 31 0.707031 C 29.796875 0.0078125 28.3125 0.0078125 27.105469 0.707031 L 24.996094 1.929688 C 24.371094 2.289062 23.601562 2.289062 22.976562 1.929688 " fill-opacity="1" fill-rule="nonzero"/></g><path fill="#e44837" d="M 39.8125 5.796875 L 31.003906 0.707031 C 29.796875 0.0078125 28.3125 0.0078125 27.109375 0.707031 L 24.996094 1.925781 C 24.371094 2.289062 23.601562 2.289062 22.976562 1.925781 L 20.863281 0.707031 C 19.660156 0.0078125 18.175781 0.0078125 16.96875 0.707031 L 8.167969 5.796875 C 6.335938 6.855469 5.210938 8.8125 5.210938 10.929688 L 5.210938 29.21875 C 5.214844 33.761719 7.636719 37.960938 11.566406 40.230469 L 18.5625 44.277344 C 20.117188 45.175781 22.105469 44.644531 23.003906 43.085938 C 23.007812 43.078125 23.015625 43.070312 23.019531 43.058594 L 23.140625 42.847656 C 24.25 40.859375 23.007812 38.402344 20.761719 38.042969 C 19.871094 37.914062 19.042969 37.523438 18.375 36.921875 C 17.382812 36.066406 16.765625 34.847656 16.664062 33.539062 L 16.191406 33.265625 C 15.042969 32.601562 14.335938 31.375 14.335938 30.046875 L 14.335938 27.871094 C 14.335938 27.117188 14.566406 26.378906 14.992188 25.761719 L 14.605469 25.535156 C 13.351562 24.804688 12.574219 23.464844 12.574219 22.007812 L 12.574219 13.507812 C 12.574219 12.054688 13.347656 10.710938 14.605469 9.984375 L 17.539062 8.28125 C 18.796875 7.554688 20.34375 7.554688 21.601562 8.28125 L 23.519531 9.386719 C 23.804688 9.554688 24.15625 9.554688 24.441406 9.386719 L 26.355469 8.28125 C 27.613281 7.554688 29.160156 7.554688 30.417969 8.28125 L 33.359375 9.984375 C 34.378906 10.53125 35.085938 11.515625 35.285156 12.652344 C 35.632812 14.347656 37.101562 15.574219 38.824219 15.617188 L 38.898438 15.617188 C 40.96875 15.679688 42.691406 14.046875 42.753906 11.976562 C 42.753906 11.941406 42.753906 11.90625 42.753906 11.871094 L 42.753906 10.925781 C 42.757812 8.8125 41.632812 6.859375 39.8125 5.796875 " fill-opacity="1" fill-rule="nonzero"/><path fill="#f47822" d="M 12.210938 36.570312 C 11.925781 36.570312 11.652344 36.4375 11.476562 36.210938 C 10.234375 34.597656 9.9375 32.445312 10.695312 30.550781 C 10.886719 30.074219 11.425781 29.84375 11.902344 30.035156 C 12.378906 30.226562 12.609375 30.769531 12.414062 31.246094 C 11.902344 32.527344 12.105469 33.980469 12.945312 35.070312 C 13.257812 35.476562 13.183594 36.0625 12.78125 36.375 C 12.617188 36.5 12.417969 36.570312 12.214844 36.570312 L 12.210938 36.570312 " fill-opacity="1" fill-rule="nonzero"/><path fill="#f47822" d="M 13.460938 6.699219 C 13.191406 6.699219 12.9375 6.582031 12.761719 6.378906 C 11.855469 5.335938 10.46875 4.855469 9.113281 5.109375 C 8.609375 5.191406 8.132812 4.847656 8.050781 4.339844 C 7.972656 3.851562 8.289062 3.386719 8.769531 3.28125 C 10.773438 2.90625 12.824219 3.621094 14.164062 5.160156 C 14.5 5.546875 14.457031 6.132812 14.070312 6.472656 C 13.902344 6.617188 13.6875 6.699219 13.464844 6.699219 L 13.460938 6.699219 " fill-opacity="1" fill-rule="nonzero"/><path fill="#f47822" d="M 10.390625 20.117188 C 10.082031 20.117188 9.785156 19.980469 9.582031 19.746094 C 8.554688 18.5625 6.976562 18.011719 5.433594 18.300781 C 4.851562 18.414062 4.292969 18.03125 4.179688 17.449219 C 4.066406 16.867188 4.449219 16.304688 5.027344 16.195312 C 5.03125 16.195312 5.035156 16.191406 5.039062 16.191406 C 7.324219 15.765625 9.667969 16.582031 11.199219 18.339844 C 11.585938 18.785156 11.539062 19.460938 11.09375 19.851562 C 10.898438 20.019531 10.648438 20.113281 10.390625 20.113281 L 10.390625 20.117188 " fill-opacity="1" fill-rule="nonzero"/><path fill="#f47822" d="M 17.515625 24 C 17.355469 23.667969 17.039062 23.445312 16.675781 23.402344 C 16.53125 23.386719 16.390625 23.375 16.253906 23.363281 C 11.269531 21.296875 5.554688 23.667969 3.488281 28.660156 C 2.699219 30.566406 2.535156 32.675781 3.011719 34.683594 C 3.125 35.167969 3.554688 35.511719 4.054688 35.511719 C 4.179688 35.511719 4.308594 35.488281 4.425781 35.445312 C 4.941406 35.238281 5.222656 34.679688 5.085938 34.144531 C 4.625 32.183594 4.957031 30.125 6.015625 28.414062 C 6.375 27.820312 6.820312 27.277344 7.328125 26.800781 C 7.453125 26.6875 7.644531 26.695312 7.761719 26.820312 C 7.859375 26.929688 7.867188 27.09375 7.78125 27.210938 C 5.113281 30.742188 5.140625 35.621094 7.84375 39.121094 C 8.210938 39.585938 8.882812 39.667969 9.347656 39.304688 C 9.367188 39.292969 9.382812 39.277344 9.398438 39.261719 C 9.824219 38.871094 9.871094 38.210938 9.507812 37.761719 C 6.949219 34.410156 7.589844 29.613281 10.933594 27.050781 C 12.3125 25.992188 14.011719 25.441406 15.75 25.484375 C 15.976562 25.589844 16.203125 25.710938 16.421875 25.839844 C 16.933594 26.144531 17.59375 25.972656 17.898438 25.460938 C 17.976562 25.328125 18.027344 25.179688 18.042969 25.027344 C 18.09375 24.609375 17.886719 24.203125 17.515625 24 " fill-opacity="1" fill-rule="nonzero"/><g clip-path="url(#d96c6eb829)"><path fill="#f47822" d="M 2.617188 29.472656 C 2.027344 29.472656 1.546875 28.992188 1.546875 28.398438 C 1.546875 28.285156 1.566406 28.171875 1.601562 28.0625 C 3.296875 22.929688 8.824219 20.148438 13.945312 21.847656 C 16.363281 22.648438 18.375 24.367188 19.546875 26.628906 C 19.820312 27.15625 19.613281 27.804688 19.089844 28.078125 C 18.5625 28.347656 17.917969 28.144531 17.644531 27.617188 C 15.707031 23.871094 11.101562 22.410156 7.363281 24.351562 C 5.597656 25.269531 4.261719 26.839844 3.636719 28.730469 C 3.492188 29.171875 3.082031 29.46875 2.617188 29.472656 " fill-opacity="1" fill-rule="nonzero"/></g><path fill="#f47822" d="M 3.574219 22.816406 C 2.984375 22.816406 2.503906 22.335938 2.503906 21.746094 C 2.503906 21.460938 2.617188 21.1875 2.816406 20.984375 C 4.832031 18.964844 7.628906 17.925781 10.472656 18.144531 C 11.0625 18.1875 11.503906 18.703125 11.460938 19.296875 C 11.417969 19.890625 10.902344 20.332031 10.308594 20.289062 C 8.09375 20.117188 5.910156 20.921875 4.332031 22.496094 C 4.132812 22.699219 3.859375 22.816406 3.574219 22.816406 " fill-opacity="1" fill-rule="nonzero"/><path fill="#fab63c" d="M 6.882812 18.554688 C 6.585938 18.664062 6.4375 18.992188 6.546875 19.289062 C 6.550781 19.300781 6.554688 19.3125 6.558594 19.324219 C 6.6875 19.589844 7.003906 19.710938 7.273438 19.597656 C 8.054688 19.273438 8.914062 19.203125 9.734375 19.402344 C 9.996094 19.46875 10.261719 19.335938 10.371094 19.089844 L 10.371094 19.082031 C 10.492188 18.804688 10.371094 18.480469 10.09375 18.355469 C 10.066406 18.34375 10.039062 18.335938 10.007812 18.328125 C 8.96875 18.070312 7.875 18.148438 6.882812 18.554688 " fill-opacity="1" fill-rule="nonzero"/><path fill="#bb2e34" d="M 16.488281 25.546875 C 16.449219 25.035156 16.007812 24.652344 15.5 24.6875 C 15.441406 24.6875 15.382812 24.699219 15.328125 24.707031 C 14.875 24.476562 14.394531 24.308594 13.898438 24.203125 C 14.117188 24.199219 14.328125 24.113281 14.488281 23.96875 C 14.863281 23.605469 14.878906 23.007812 14.53125 22.625 C 13.199219 21.136719 11.191406 20.445312 9.226562 20.800781 C 8.742188 20.878906 8.394531 21.3125 8.421875 21.804688 C 8.460938 22.316406 8.910156 22.695312 9.421875 22.65625 C 9.457031 22.652344 9.496094 22.644531 9.53125 22.640625 C 10.140625 22.507812 10.777344 22.535156 11.375 22.71875 C 12.136719 22.957031 12.117188 24.054688 11.34375 24.246094 C 10.976562 24.335938 10.617188 24.464844 10.273438 24.625 C 9.832031 24.824219 9.605469 25.324219 9.75 25.785156 C 9.921875 26.269531 10.449219 26.527344 10.933594 26.359375 C 10.96875 26.347656 11.003906 26.332031 11.035156 26.316406 C 11.183594 26.246094 11.332031 26.183594 11.484375 26.132812 C 11.597656 26.09375 11.722656 26.152344 11.761719 26.265625 C 11.785156 26.34375 11.769531 26.425781 11.714844 26.484375 C 11.339844 26.882812 11.027344 27.332031 10.78125 27.816406 C 10.5625 28.238281 10.683594 28.753906 11.066406 29.03125 C 11.484375 29.324219 12.0625 29.21875 12.355469 28.796875 C 12.382812 28.761719 12.40625 28.71875 12.425781 28.679688 C 12.9375 27.660156 13.867188 26.917969 14.96875 26.644531 C 15.398438 26.867188 15.925781 26.71875 16.179688 26.300781 C 16.394531 26.113281 16.507812 25.832031 16.488281 25.546875 " fill-opacity="1" fill-rule="nonzero"/><path fill="#bb2e34" d="M 14.589844 19.449219 C 14.148438 19.449219 13.769531 19.136719 13.679688 18.703125 C 13.402344 17.355469 12.433594 16.253906 11.132812 15.804688 C 10.648438 15.640625 10.386719 15.113281 10.550781 14.628906 C 10.714844 14.140625 11.242188 13.878906 11.730469 14.046875 C 13.65625 14.707031 15.089844 16.339844 15.5 18.335938 C 15.601562 18.839844 15.277344 19.332031 14.773438 19.433594 C 14.714844 19.445312 14.652344 19.453125 14.589844 19.453125 L 14.589844 19.449219 " fill-opacity="1" fill-rule="nonzero"/><path fill="#fab63c" d="M 6.515625 31.019531 L 6.503906 31.019531 C 6.253906 30.902344 6.125 30.617188 6.199219 30.347656 C 6.425781 29.574219 6.75 28.828125 7.160156 28.136719 C 7.328125 27.867188 7.683594 27.789062 7.949219 27.957031 C 8.019531 28.003906 8.082031 28.0625 8.125 28.136719 L 8.125 28.144531 C 8.230469 28.320312 8.230469 28.539062 8.125 28.71875 C 7.765625 29.328125 7.484375 29.980469 7.285156 30.660156 C 7.191406 30.964844 6.871094 31.132812 6.570312 31.039062 C 6.550781 31.035156 6.535156 31.027344 6.515625 31.019531 " fill-opacity="1" fill-rule="nonzero"/><path fill="#fab63c" d="M 4.957031 26.203125 C 5.496094 25.542969 6.117188 24.957031 6.804688 24.460938 C 7.0625 24.277344 7.417969 24.339844 7.601562 24.601562 C 7.632812 24.648438 7.660156 24.703125 7.679688 24.761719 L 7.679688 24.777344 C 7.742188 25.003906 7.65625 25.25 7.46875 25.390625 C 6.859375 25.828125 6.3125 26.347656 5.839844 26.929688 C 5.636719 27.171875 5.277344 27.199219 5.035156 26.996094 C 5.027344 26.988281 5.019531 26.980469 5.011719 26.972656 L 5.003906 26.964844 C 4.792969 26.761719 4.773438 26.429688 4.957031 26.203125 " fill-opacity="1" fill-rule="nonzero"/><path fill="#fab63c" d="M 4.457031 28.019531 L 4.488281 28.039062 C 4.730469 28.191406 4.820312 28.5 4.695312 28.757812 L 4.695312 28.765625 C 4.570312 29.027344 4.269531 29.144531 4 29.042969 L 3.964844 29.03125 C 3.683594 28.921875 3.539062 28.609375 3.644531 28.324219 C 3.648438 28.308594 3.652344 28.296875 3.660156 28.285156 L 3.671875 28.253906 C 3.804688 27.980469 4.132812 27.863281 4.410156 27.996094 C 4.425781 28.003906 4.441406 28.011719 4.457031 28.019531 " fill-opacity="1" fill-rule="nonzero"/><path fill="#e44837" d="M 35.703125 36.570312 C 35.191406 36.570312 34.773438 36.152344 34.773438 35.640625 C 34.773438 35.433594 34.84375 35.234375 34.96875 35.070312 C 35.578125 34.285156 35.863281 33.292969 35.757812 32.300781 C 35.714844 31.789062 36.09375 31.339844 36.605469 31.296875 C 37.101562 31.253906 37.546875 31.613281 37.605469 32.113281 C 37.757812 33.578125 37.339844 35.046875 36.4375 36.210938 C 36.261719 36.4375 35.988281 36.570312 35.703125 36.570312 " fill-opacity="1" fill-rule="nonzero"/><path fill="#e44837" d="M 44.339844 22.816406 C 44.054688 22.816406 43.78125 22.703125 43.582031 22.503906 C 42.007812 20.921875 39.824219 20.113281 37.601562 20.285156 C 37.011719 20.328125 36.496094 19.882812 36.453125 19.292969 C 36.40625 18.699219 36.851562 18.183594 37.441406 18.136719 C 40.285156 17.921875 43.082031 18.960938 45.09375 20.984375 C 45.511719 21.40625 45.511719 22.085938 45.09375 22.503906 C 44.890625 22.703125 44.621094 22.816406 44.335938 22.816406 L 44.339844 22.816406 " fill-opacity="1" fill-rule="nonzero"/><g clip-path="url(#c2413afa35)"><path fill="#e44837" d="M 46.304688 28.035156 C 44.839844 23.660156 40.53125 20.902344 35.957031 21.414062 C 35.695312 21.441406 35.496094 21.65625 35.484375 21.917969 L 35.484375 21.921875 C 35.464844 22.21875 35.6875 22.476562 35.984375 22.496094 C 36.007812 22.496094 36.03125 22.496094 36.054688 22.496094 C 36.683594 22.449219 37.3125 22.511719 37.921875 22.671875 C 38.390625 22.789062 38.699219 23.242188 38.632812 23.722656 C 38.554688 24.230469 38.082031 24.578125 37.574219 24.5 C 37.539062 24.492188 37.503906 24.484375 37.46875 24.476562 C 36.972656 24.339844 36.449219 24.304688 35.9375 24.371094 C 35.511719 24.433594 35.179688 24.765625 35.117188 25.191406 C 35.050781 25.632812 35.28125 26.066406 35.6875 26.257812 C 39.472656 28.109375 41.042969 32.683594 39.195312 36.476562 C 38.972656 36.929688 38.707031 37.363281 38.398438 37.765625 C 38.039062 38.21875 38.085938 38.875 38.511719 39.269531 C 38.957031 39.660156 39.632812 39.617188 40.023438 39.175781 C 40.039062 39.160156 40.050781 39.140625 40.0625 39.125 C 42.820312 35.5625 42.789062 30.574219 39.992188 27.042969 C 39.894531 26.917969 39.914062 26.738281 40.039062 26.640625 C 40.144531 26.554688 40.296875 26.558594 40.402344 26.644531 C 42.53125 28.511719 43.460938 31.402344 42.820312 34.160156 C 42.664062 34.730469 43 35.320312 43.566406 35.476562 C 43.660156 35.5 43.757812 35.515625 43.855469 35.515625 C 44.347656 35.515625 44.78125 35.171875 44.894531 34.691406 C 45.328125 32.890625 45.242188 31.007812 44.640625 29.253906 C 44.964844 29.503906 45.398438 29.546875 45.761719 29.367188 C 46.25 29.121094 46.480469 28.550781 46.304688 28.035156 " fill-opacity="1" fill-rule="nonzero"/></g><path fill="#f47822" d="M 41.398438 31.019531 L 41.410156 31.019531 C 41.660156 30.902344 41.789062 30.617188 41.714844 30.347656 C 41.488281 29.574219 41.164062 28.828125 40.753906 28.136719 C 40.585938 27.867188 40.230469 27.789062 39.964844 27.957031 C 39.894531 28.003906 39.832031 28.0625 39.789062 28.136719 L 39.789062 28.144531 C 39.683594 28.320312 39.683594 28.539062 39.789062 28.71875 C 40.148438 29.328125 40.429688 29.980469 40.628906 30.660156 C 40.722656 30.964844 41.042969 31.132812 41.34375 31.039062 C 41.359375 31.035156 41.378906 31.027344 41.398438 31.019531 " fill-opacity="1" fill-rule="nonzero"/><path fill="#f47822" d="M 42.953125 26.203125 C 42.414062 25.542969 41.792969 24.957031 41.105469 24.460938 C 40.847656 24.277344 40.492188 24.339844 40.308594 24.601562 C 40.277344 24.648438 40.25 24.703125 40.230469 24.761719 L 40.230469 24.777344 C 40.167969 25.003906 40.253906 25.25 40.441406 25.390625 C 41.050781 25.828125 41.597656 26.347656 42.074219 26.929688 C 42.277344 27.171875 42.636719 27.199219 42.878906 26.996094 C 42.886719 26.988281 42.894531 26.980469 42.902344 26.972656 L 42.910156 26.964844 C 43.117188 26.761719 43.136719 26.429688 42.953125 26.203125 " fill-opacity="1" fill-rule="nonzero"/><path fill="#f47822" d="M 43.457031 28.019531 L 43.425781 28.039062 C 43.183594 28.191406 43.09375 28.5 43.21875 28.757812 L 43.21875 28.765625 C 43.339844 29.027344 43.644531 29.144531 43.914062 29.042969 L 43.949219 29.03125 C 44.230469 28.921875 44.375 28.609375 44.269531 28.324219 C 44.265625 28.308594 44.257812 28.296875 44.253906 28.285156 L 44.238281 28.253906 C 44.109375 27.980469 43.78125 27.863281 43.503906 27.996094 C 43.488281 28.003906 43.472656 28.011719 43.457031 28.019531 " fill-opacity="1" fill-rule="nonzero"/><path fill="#bb2e34" d="M 39.292969 12.371094 C 38.742188 12.375 38.292969 11.925781 38.292969 11.375 C 38.292969 11.058594 38.4375 10.761719 38.6875 10.574219 C 39.910156 9.636719 41.457031 9.230469 42.980469 9.445312 C 43.527344 9.523438 43.910156 10.027344 43.835938 10.574219 C 43.761719 11.125 43.257812 11.507812 42.710938 11.429688 C 41.710938 11.289062 40.695312 11.554688 39.894531 12.167969 C 39.722656 12.300781 39.511719 12.371094 39.292969 12.371094 " fill-opacity="1" fill-rule="nonzero"/><path fill="#bb2e34" d="M 30.015625 4.558594 L 30.015625 4.539062 C 29.964844 3.992188 29.480469 3.59375 28.9375 3.648438 C 28.835938 3.65625 28.738281 3.679688 28.648438 3.71875 C 28.503906 3.78125 28.367188 3.847656 28.230469 3.925781 L 28.164062 3.964844 C 27.710938 4.226562 27.292969 4.546875 26.921875 4.917969 C 26.761719 5.066406 26.515625 5.0625 26.363281 4.90625 C 26.257812 4.796875 26.226562 4.632812 26.28125 4.488281 C 26.632812 3.640625 27.25 2.933594 28.039062 2.472656 L 28.054688 2.464844 L 28.105469 2.433594 C 28.171875 2.398438 28.242188 2.363281 28.308594 2.332031 C 28.703125 2.164062 28.9375 1.757812 28.894531 1.332031 L 28.894531 1.316406 C 28.839844 0.773438 28.359375 0.375 27.8125 0.425781 C 27.714844 0.433594 27.617188 0.460938 27.523438 0.5 C 27.378906 0.558594 27.238281 0.628906 27.105469 0.707031 L 27.039062 0.746094 C 25.132812 1.851562 23.960938 3.894531 23.964844 6.101562 L 23.964844 19.574219 C 24.339844 19.527344 24.710938 19.476562 25.085938 19.417969 L 25.085938 22.792969 C 25.753906 22.714844 26.421875 22.613281 27.082031 22.480469 L 27.082031 9.324219 C 27.085938 7.828125 27.882812 6.449219 29.171875 5.699219 L 29.183594 5.691406 L 29.234375 5.664062 C 29.300781 5.625 29.371094 5.589844 29.441406 5.5625 C 29.828125 5.386719 30.0625 4.984375 30.015625 4.558594 " fill-opacity="1" fill-rule="nonzero"/><path fill="#f89b2e" d="M 22.738281 10.75 L 20.820312 9.644531 C 20.050781 9.199219 19.101562 9.199219 18.328125 9.644531 L 15.398438 11.339844 C 14.625 11.785156 14.148438 12.609375 14.148438 13.503906 L 14.148438 22.007812 C 14.148438 22.902344 14.625 23.726562 15.398438 24.171875 L 22.746094 28.425781 C 23.515625 28.871094 24.46875 28.871094 25.238281 28.425781 L 32.589844 24.171875 C 33.359375 23.726562 33.835938 22.902344 33.835938 22.007812 L 33.835938 13.507812 C 33.835938 12.613281 33.359375 11.785156 32.582031 11.339844 L 29.640625 9.644531 C 28.871094 9.199219 27.917969 9.199219 27.148438 9.644531 L 25.230469 10.75 C 24.460938 11.199219 23.507812 11.199219 22.738281 10.75 " fill-opacity="1" fill-rule="nonzero"/><path fill="#fbcb65" d="M 16.175781 22.8125 C 15.890625 22.644531 15.714844 22.339844 15.710938 22.007812 L 15.710938 13.507812 C 15.714844 13.179688 15.890625 12.875 16.175781 12.707031 L 17.1875 12.125 C 16.96875 11.644531 16.71875 11.183594 16.433594 10.742188 L 15.398438 11.339844 C 14.625 11.785156 14.148438 12.609375 14.148438 13.503906 L 14.148438 22.007812 C 14.148438 22.902344 14.625 23.726562 15.398438 24.171875 L 15.703125 24.355469 C 16.070312 24.570312 16.539062 24.445312 16.757812 24.082031 L 16.765625 24.066406 C 16.984375 23.695312 16.863281 23.21875 16.492188 23 C 16.488281 23 16.484375 22.996094 16.480469 22.992188 L 16.175781 22.8125 " fill-opacity="1" fill-rule="nonzero"/><path fill="#f47822" d="M 33.828125 13.507812 L 33.828125 22.007812 C 33.828125 22.902344 33.355469 23.726562 32.582031 24.171875 L 27.492188 27.117188 C 27.183594 26.472656 26.878906 25.820312 26.589844 25.160156 L 31.511719 22.316406 C 31.621094 22.253906 31.6875 22.136719 31.6875 22.007812 L 31.6875 13.507812 C 31.6875 13.382812 31.621094 13.261719 31.511719 13.199219 L 28.570312 11.5 C 28.515625 11.46875 28.457031 11.449219 28.394531 11.453125 C 28.332031 11.449219 28.273438 11.46875 28.21875 11.5 L 26.304688 12.605469 C 26.195312 12.667969 26.085938 12.726562 25.976562 12.777344 C 25.441406 13.035156 25.101562 13.574219 25.105469 14.167969 C 25.113281 14.785156 24.644531 15.304688 24.03125 15.359375 C 23.398438 15.402344 22.847656 14.921875 22.804688 14.285156 C 22.804688 14.261719 22.804688 14.238281 22.804688 14.214844 L 22.804688 14.144531 C 22.804688 13.558594 22.472656 13.023438 21.949219 12.761719 C 21.851562 12.71875 21.761719 12.667969 21.671875 12.621094 L 19.757812 11.511719 C 19.648438 11.449219 19.515625 11.449219 19.40625 11.511719 L 16.910156 12.941406 C 16.625 13.105469 16.285156 13.132812 15.980469 13.011719 C 15.429688 12.792969 15.160156 12.167969 15.378906 11.617188 C 15.46875 11.390625 15.632812 11.203125 15.84375 11.082031 L 15.96875 11.007812 L 18.332031 9.644531 C 19.101562 9.199219 20.054688 9.199219 20.824219 9.644531 L 22.738281 10.75 C 23.511719 11.199219 24.460938 11.199219 25.234375 10.75 L 27.148438 9.644531 C 27.917969 9.199219 28.871094 9.199219 29.640625 9.644531 L 32.582031 11.339844 C 33.355469 11.789062 33.832031 12.613281 33.828125 13.507812 " fill-opacity="1" fill-rule="nonzero"/><path fill="#fab63c" d="M 18.214844 30.34375 L 29.695312 30.34375 L 29.695312 33.15625 C 29.695312 35.035156 28.175781 36.5625 26.296875 36.5625 L 21.613281 36.5625 C 19.738281 36.5625 18.214844 35.035156 18.214844 33.15625 L 18.214844 30.34375 " fill-opacity="1" fill-rule="nonzero"/><path fill="#fce29f" d="M 28.410156 32.203125 L 28.410156 33.160156 C 28.410156 34.328125 27.464844 35.277344 26.296875 35.277344 L 21.617188 35.277344 C 21.140625 35.277344 20.675781 35.113281 20.304688 34.816406 C 20.050781 34.625 19.699219 34.648438 19.476562 34.875 L 19.464844 34.886719 C 19.214844 35.125 19.207031 35.523438 19.449219 35.773438 C 19.46875 35.796875 19.488281 35.8125 19.511719 35.832031 C 20.109375 36.304688 20.851562 36.5625 21.617188 36.5625 L 26.296875 36.5625 C 28.175781 36.5625 29.695312 35.039062 29.695312 33.160156 L 29.695312 32.273438 C 29.269531 32.25 28.839844 32.230469 28.410156 32.203125 " fill-opacity="1" fill-rule="nonzero"/><path fill="#fce29f" d="M 24.195312 35.601562 C 23.746094 35.4375 23.367188 35.128906 23.121094 34.71875 C 22.949219 34.453125 22.605469 34.355469 22.320312 34.492188 L 22.308594 34.492188 C 21.992188 34.628906 21.84375 35 21.984375 35.320312 C 21.996094 35.347656 22.007812 35.371094 22.023438 35.398438 C 22.246094 35.757812 22.539062 36.074219 22.878906 36.328125 C 23.898438 36.128906 24.929688 36.175781 25.953125 36.238281 L 24.195312 35.601562 " fill-opacity="1" fill-rule="nonzero"/><path fill="#f68b28" d="M 33.082031 27.542969 L 33.082031 30.050781 C 33.078125 31.199219 32.46875 32.261719 31.476562 32.839844 L 29.949219 33.71875 C 29.839844 33.785156 29.730469 33.84375 29.617188 33.894531 C 29.269531 35.453125 27.890625 36.5625 26.296875 36.5625 L 26.011719 36.5625 C 25.679688 36.5625 25.40625 36.304688 25.378906 35.972656 L 25.378906 35.960938 C 25.351562 35.609375 25.613281 35.304688 25.960938 35.277344 C 25.976562 35.277344 25.996094 35.277344 26.011719 35.277344 L 26.320312 35.277344 C 27.089844 35.269531 27.167969 34.132812 26.40625 34 C 25.617188 33.867188 24.816406 33.800781 24.011719 33.804688 C 22.886719 33.804688 21.761719 33.929688 20.664062 34.167969 C 20.398438 34.226562 20.128906 34.253906 19.859375 34.253906 C 19.191406 34.246094 18.539062 34.0625 17.964844 33.71875 L 16.441406 32.839844 C 15.449219 32.261719 14.839844 31.199219 14.835938 30.050781 L 14.835938 27.542969 L 33.082031 27.542969 " fill-opacity="1" fill-rule="nonzero"/><path fill="#ea6d2a" d="M 32.007812 27.542969 L 14.832031 27.542969 L 14.832031 30.054688 C 14.835938 31.203125 15.445312 32.261719 16.4375 32.839844 L 17.964844 33.722656 C 18.539062 34.066406 19.195312 34.25 19.863281 34.257812 C 20.132812 34.253906 20.402344 34.226562 20.667969 34.167969 C 21.765625 33.929688 22.890625 33.808594 24.015625 33.804688 C 25.09375 33.804688 26.164062 33.921875 27.214844 34.160156 C 27.492188 34.222656 27.777344 34.253906 28.058594 34.257812 C 28.730469 34.25 29.382812 34.066406 29.957031 33.722656 L 31.480469 32.839844 C 32.472656 32.261719 33.082031 31.203125 33.085938 30.054688 L 33.085938 27.542969 L 32.007812 27.542969 " fill-opacity="1" fill-rule="nonzero"/><path fill="#673f48" d="M 19.929688 24.445312 L 27.984375 24.445312 L 27.984375 32.785156 L 19.929688 32.785156 L 19.929688 24.445312 " fill-opacity="1" fill-rule="nonzero"/><path fill="#fbc060" d="M 24.636719 18.257812 C 24.640625 18.613281 24.378906 18.917969 24.023438 18.960938 C 23.652344 19 23.320312 18.726562 23.28125 18.351562 C 23.28125 18.332031 23.28125 18.308594 23.28125 18.285156 L 23.28125 18.257812 C 23.28125 16.972656 22.238281 15.929688 20.957031 15.929688 C 20.390625 15.929688 19.929688 16.390625 19.929688 16.960938 L 19.929688 24.445312 L 27.984375 24.445312 L 27.984375 16.960938 C 27.984375 16.394531 27.527344 15.933594 26.960938 15.929688 C 25.679688 15.929688 24.636719 16.96875 24.636719 18.253906 C 24.636719 18.253906 24.636719 18.253906 24.636719 18.257812 " fill-opacity="1" fill-rule="nonzero"/><path fill="#ea6d2a" d="M 32.082031 18.292969 C 31.875 17.996094 31.496094 17.871094 31.152344 17.992188 L 29.539062 18.527344 L 29.539062 15.589844 L 29.878906 15.589844 C 30.011719 15.585938 30.121094 15.476562 30.121094 15.34375 C 30.121094 15.269531 30.085938 15.203125 30.035156 15.160156 L 29.625 14.820312 L 28.84375 14.175781 C 28.617188 13.992188 28.285156 14.027344 28.105469 14.253906 C 28.027344 14.347656 27.988281 14.464844 27.988281 14.582031 L 27.988281 25.402344 L 29.542969 25.402344 L 29.542969 22.128906 C 29.542969 20.960938 30.292969 19.925781 31.398438 19.554688 L 31.683594 19.460938 C 32.09375 19.328125 32.3125 18.886719 32.179688 18.476562 C 32.15625 18.414062 32.128906 18.351562 32.089844 18.296875 L 32.082031 18.292969 " fill-opacity="1" fill-rule="nonzero"/><path fill="#ea6d2a" d="M 15.824219 18.292969 C 16.03125 17.996094 16.414062 17.871094 16.753906 17.992188 L 18.367188 18.527344 L 18.367188 15.589844 L 18.027344 15.589844 C 17.894531 15.585938 17.785156 15.476562 17.789062 15.34375 C 17.789062 15.269531 17.820312 15.203125 17.875 15.160156 L 18.285156 14.820312 L 19.066406 14.175781 C 19.289062 13.992188 19.621094 14.027344 19.804688 14.253906 C 19.878906 14.347656 19.921875 14.464844 19.921875 14.582031 L 19.921875 25.402344 L 18.363281 25.402344 L 18.363281 22.128906 C 18.363281 20.960938 17.617188 19.925781 16.507812 19.554688 L 16.222656 19.460938 C 15.816406 19.328125 15.59375 18.886719 15.730469 18.476562 C 15.75 18.414062 15.78125 18.351562 15.816406 18.296875 L 15.824219 18.292969 " fill-opacity="1" fill-rule="nonzero"/><path fill="#673f48" d="M 31.628906 15.917969 C 31.59375 15.726562 31.425781 15.589844 31.230469 15.59375 L 28.949219 15.59375 C 28.417969 15.59375 27.988281 16.023438 27.988281 16.550781 L 27.988281 18.191406 C 27.980469 18.40625 28.148438 18.585938 28.363281 18.59375 C 28.367188 18.59375 28.371094 18.59375 28.378906 18.59375 C 28.589844 18.589844 28.761719 18.417969 28.761719 18.203125 L 28.761719 17.957031 C 28.757812 17.917969 28.777344 17.882812 28.8125 17.863281 C 28.847656 17.839844 28.890625 17.835938 28.925781 17.851562 C 29.289062 18.007812 29.699219 18.019531 30.070312 17.890625 C 30.695312 17.671875 31.113281 17.078125 31.101562 16.414062 C 31.101562 16.398438 31.105469 16.386719 31.117188 16.378906 C 31.125 16.371094 31.132812 16.367188 31.144531 16.367188 L 31.246094 16.367188 C 31.460938 16.367188 31.632812 16.191406 31.632812 15.976562 C 31.632812 15.957031 31.632812 15.933594 31.628906 15.914062 L 31.628906 15.917969 " fill-opacity="1" fill-rule="nonzero"/><path fill="#f47822" d="M 30.214844 16.191406 C 30.082031 16.195312 29.972656 16.304688 29.972656 16.4375 C 29.96875 16.675781 29.769531 16.867188 29.527344 16.859375 C 29.289062 16.855469 29.101562 16.65625 29.105469 16.414062 C 29.101562 16.289062 29 16.191406 28.875 16.191406 C 28.742188 16.191406 28.636719 16.296875 28.632812 16.429688 C 28.632812 16.933594 29.042969 17.34375 29.546875 17.34375 C 30.050781 17.34375 30.460938 16.933594 30.460938 16.429688 C 30.460938 16.296875 30.351562 16.191406 30.222656 16.191406 L 30.214844 16.191406 " fill-opacity="1" fill-rule="nonzero"/><path fill="#fbcb65" d="M 30.453125 16.4375 C 30.457031 16.304688 30.351562 16.195312 30.21875 16.191406 C 30.203125 16.191406 30.191406 16.191406 30.175781 16.195312 C 30.058594 16.222656 29.976562 16.324219 29.972656 16.445312 L 29.972656 16.457031 C 29.957031 16.5625 30.015625 16.664062 30.117188 16.703125 L 30.132812 16.703125 C 30.257812 16.746094 30.394531 16.675781 30.4375 16.550781 C 30.441406 16.535156 30.445312 16.515625 30.449219 16.496094 C 30.449219 16.480469 30.453125 16.460938 30.453125 16.4375 " fill-opacity="1" fill-rule="nonzero"/><path fill="#fbcb65" d="M 29.117188 16.515625 C 29.109375 16.484375 29.105469 16.449219 29.105469 16.414062 C 29.101562 16.289062 29 16.191406 28.875 16.191406 C 28.742188 16.191406 28.636719 16.296875 28.632812 16.425781 C 28.636719 16.65625 28.722656 16.871094 28.878906 17.039062 C 28.96875 17.136719 29.121094 17.140625 29.214844 17.050781 C 29.242188 17.027344 29.261719 16.996094 29.273438 16.964844 C 29.308594 16.878906 29.289062 16.777344 29.222656 16.710938 C 29.171875 16.65625 29.136719 16.589844 29.117188 16.515625 " fill-opacity="1" fill-rule="nonzero"/><path fill="#fbf2cc" d="M 28.625 16.4375 C 28.625 16.304688 28.730469 16.195312 28.863281 16.191406 C 28.875 16.191406 28.890625 16.191406 28.902344 16.195312 C 29.019531 16.222656 29.105469 16.324219 29.105469 16.445312 L 29.105469 16.457031 C 29.121094 16.5625 29.0625 16.664062 28.960938 16.703125 L 28.945312 16.703125 C 28.820312 16.746094 28.6875 16.675781 28.644531 16.550781 C 28.636719 16.535156 28.632812 16.515625 28.632812 16.496094 C 28.628906 16.480469 28.625 16.460938 28.625 16.4375 " fill-opacity="1" fill-rule="nonzero"/><path fill="#fcdc90" d="M 31.332031 16.355469 C 31.300781 16.363281 31.273438 16.367188 31.246094 16.367188 L 31.140625 16.367188 C 31.128906 16.367188 31.117188 16.371094 31.109375 16.378906 C 31.101562 16.390625 31.09375 16.402344 31.09375 16.414062 C 31.105469 17.078125 30.6875 17.671875 30.0625 17.890625 C 29.691406 18.019531 29.28125 18.003906 28.921875 17.851562 C 28.882812 17.832031 28.839844 17.835938 28.804688 17.859375 C 28.773438 17.882812 28.753906 17.917969 28.753906 17.957031 L 28.753906 18.203125 C 28.753906 18.414062 28.589844 18.582031 28.386719 18.59375 C 29.578125 19.234375 31.0625 18.785156 31.703125 17.589844 C 31.792969 17.421875 31.863281 17.242188 31.910156 17.0625 C 31.984375 16.769531 31.808594 16.476562 31.519531 16.402344 C 31.511719 16.402344 31.503906 16.398438 31.5 16.398438 C 31.445312 16.375 31.386719 16.367188 31.332031 16.355469 " fill-opacity="1" fill-rule="nonzero"/><path fill="#673f48" d="M 16.285156 15.917969 C 16.320312 15.726562 16.488281 15.585938 16.683594 15.589844 L 18.964844 15.589844 C 19.496094 15.589844 19.925781 16.019531 19.925781 16.546875 L 19.925781 18.1875 C 19.933594 18.402344 19.765625 18.582031 19.550781 18.589844 C 19.546875 18.589844 19.539062 18.589844 19.535156 18.589844 C 19.320312 18.589844 19.148438 18.417969 19.144531 18.203125 C 19.144531 18.203125 19.144531 18.199219 19.144531 18.199219 L 19.144531 17.953125 C 19.148438 17.914062 19.128906 17.878906 19.09375 17.859375 C 19.058594 17.835938 19.015625 17.832031 18.980469 17.847656 C 18.617188 18.003906 18.210938 18.015625 17.835938 17.886719 C 17.21875 17.664062 16.8125 17.070312 16.824219 16.414062 C 16.824219 16.398438 16.820312 16.386719 16.808594 16.378906 C 16.800781 16.371094 16.792969 16.367188 16.78125 16.367188 L 16.675781 16.367188 C 16.460938 16.367188 16.285156 16.191406 16.285156 15.976562 C 16.285156 15.957031 16.285156 15.933594 16.289062 15.914062 L 16.285156 15.917969 " fill-opacity="1" fill-rule="nonzero"/><path fill="#f47822" d="M 19.046875 16.191406 C 18.914062 16.195312 18.808594 16.304688 18.808594 16.4375 C 18.800781 16.675781 18.601562 16.867188 18.363281 16.859375 C 18.125 16.855469 17.933594 16.65625 17.941406 16.414062 C 17.9375 16.289062 17.832031 16.191406 17.707031 16.191406 C 17.578125 16.191406 17.46875 16.296875 17.46875 16.429688 C 17.46875 16.933594 17.875 17.34375 18.382812 17.34375 C 18.886719 17.34375 19.292969 16.933594 19.292969 16.429688 C 19.292969 16.296875 19.1875 16.191406 19.054688 16.191406 L 19.046875 16.191406 " fill-opacity="1" fill-rule="nonzero"/><path fill="#fbcb65" d="M 19.289062 16.4375 C 19.289062 16.304688 19.183594 16.195312 19.050781 16.191406 C 19.039062 16.191406 19.023438 16.191406 19.011719 16.195312 C 18.890625 16.222656 18.808594 16.324219 18.808594 16.445312 L 18.808594 16.457031 C 18.792969 16.5625 18.851562 16.664062 18.949219 16.703125 L 18.96875 16.703125 C 19.09375 16.746094 19.226562 16.675781 19.269531 16.550781 C 19.277344 16.535156 19.28125 16.515625 19.28125 16.496094 C 19.285156 16.480469 19.289062 16.460938 19.289062 16.4375 " fill-opacity="1" fill-rule="nonzero"/><path fill="#fbcb65" d="M 17.949219 16.515625 C 17.941406 16.484375 17.9375 16.449219 17.941406 16.414062 C 17.9375 16.289062 17.832031 16.191406 17.707031 16.191406 C 17.578125 16.191406 17.46875 16.296875 17.46875 16.425781 C 17.46875 16.65625 17.558594 16.871094 17.710938 17.039062 C 17.804688 17.136719 17.953125 17.140625 18.050781 17.050781 C 18.074219 17.027344 18.09375 16.996094 18.105469 16.964844 C 18.140625 16.878906 18.121094 16.777344 18.058594 16.710938 C 18.003906 16.65625 17.96875 16.589844 17.949219 16.515625 " fill-opacity="1" fill-rule="nonzero"/><path fill="#fbf2cc" d="M 17.460938 16.4375 C 17.457031 16.304688 17.5625 16.195312 17.695312 16.191406 C 17.710938 16.191406 17.722656 16.191406 17.738281 16.195312 C 17.855469 16.222656 17.9375 16.324219 17.941406 16.445312 L 17.941406 16.457031 C 17.957031 16.5625 17.894531 16.664062 17.796875 16.703125 L 17.78125 16.703125 C 17.65625 16.746094 17.519531 16.675781 17.476562 16.550781 C 17.472656 16.535156 17.46875 16.515625 17.464844 16.496094 C 17.464844 16.480469 17.460938 16.460938 17.460938 16.4375 " fill-opacity="1" fill-rule="nonzero"/><path fill="#fcdc90" d="M 16.582031 16.355469 C 16.613281 16.363281 16.640625 16.367188 16.667969 16.367188 L 16.773438 16.367188 C 16.785156 16.367188 16.796875 16.371094 16.804688 16.378906 C 16.8125 16.390625 16.820312 16.402344 16.820312 16.414062 C 16.808594 17.078125 17.226562 17.671875 17.851562 17.890625 C 18.222656 18.019531 18.628906 18.003906 18.992188 17.851562 C 19.03125 17.832031 19.074219 17.835938 19.109375 17.859375 C 19.140625 17.882812 19.160156 17.917969 19.160156 17.957031 L 19.160156 18.203125 C 19.160156 18.414062 19.320312 18.582031 19.527344 18.59375 C 18.335938 19.234375 16.847656 18.785156 16.210938 17.589844 C 16.121094 17.421875 16.050781 17.242188 16.003906 17.0625 C 15.929688 16.769531 16.105469 16.476562 16.394531 16.402344 C 16.402344 16.402344 16.410156 16.398438 16.414062 16.398438 C 16.46875 16.375 16.527344 16.367188 16.582031 16.355469 " fill-opacity="1" fill-rule="nonzero"/><path fill="#fcdc90" d="M 15.902344 27.871094 L 15.902344 30.054688 C 15.902344 30.820312 16.3125 31.527344 16.972656 31.914062 L 18.5 32.792969 C 19.386719 33.308594 20.476562 33.308594 21.363281 32.792969 L 23.964844 31.289062 L 23.964844 27.871094 C 23.964844 27.105469 23.554688 26.394531 22.894531 26.011719 L 21 24.925781 C 20.339844 24.542969 19.523438 24.542969 18.859375 24.925781 L 16.96875 26.015625 C 16.308594 26.398438 15.902344 27.105469 15.902344 27.871094 " fill-opacity="1" fill-rule="nonzero"/><path fill="#fcdc90" d="M 23.964844 27.871094 L 23.964844 31.289062 L 26.550781 32.792969 C 27.4375 33.308594 28.53125 33.308594 29.414062 32.792969 L 30.941406 31.910156 C 31.601562 31.527344 32.011719 30.820312 32.007812 30.050781 L 32.007812 27.871094 C 32.011719 27.105469 31.601562 26.394531 30.941406 26.011719 L 29.054688 24.925781 C 28.390625 24.542969 27.574219 24.542969 26.910156 24.925781 L 25.023438 26.019531 C 24.367188 26.402344 23.964844 27.109375 23.964844 27.871094 " fill-opacity="1" fill-rule="nonzero"/><path fill="#fbf2cc" d="M 17.617188 30.792969 C 17.351562 30.636719 17.191406 30.355469 17.1875 30.050781 L 17.1875 27.871094 C 17.191406 27.566406 17.351562 27.28125 17.617188 27.128906 L 19.503906 26.039062 C 19.632812 25.964844 19.78125 25.925781 19.933594 25.925781 C 20.121094 25.929688 20.292969 25.835938 20.394531 25.679688 L 20.546875 25.417969 C 20.691406 25.171875 20.605469 24.859375 20.363281 24.714844 C 20.300781 24.679688 20.230469 24.65625 20.15625 24.648438 C 19.707031 24.601562 19.253906 24.699219 18.859375 24.925781 L 16.96875 26.015625 C 16.304688 26.398438 15.898438 27.105469 15.898438 27.875 L 15.898438 30.054688 C 15.898438 30.824219 16.304688 31.53125 16.96875 31.914062 L 17.601562 32.28125 C 17.90625 32.457031 18.296875 32.351562 18.472656 32.046875 C 18.476562 32.035156 18.480469 32.027344 18.488281 32.015625 L 18.488281 32.003906 C 18.640625 31.703125 18.527344 31.332031 18.234375 31.167969 L 17.617188 30.792969 " fill-opacity="1" fill-rule="nonzero"/><path fill="#fbc060" d="M 30.941406 26.015625 L 30.796875 25.929688 C 30.496094 25.753906 30.105469 25.855469 29.929688 26.160156 C 29.921875 26.171875 29.914062 26.1875 29.90625 26.199219 L 29.90625 26.210938 C 29.761719 26.511719 29.871094 26.875 30.160156 27.042969 L 30.304688 27.128906 C 30.566406 27.28125 30.730469 27.5625 30.730469 27.867188 L 30.730469 30.050781 C 30.730469 30.355469 30.566406 30.636719 30.304688 30.792969 L 28.777344 31.675781 C 28.289062 31.957031 27.6875 31.957031 27.199219 31.675781 L 27.085938 31.609375 C 26.800781 31.441406 26.433594 31.523438 26.246094 31.796875 L 26.238281 31.808594 C 26.039062 32.097656 26.109375 32.496094 26.398438 32.695312 C 26.414062 32.703125 26.429688 32.714844 26.441406 32.722656 L 26.558594 32.789062 C 27.445312 33.300781 28.535156 33.300781 29.421875 32.789062 L 30.949219 31.90625 C 31.609375 31.523438 32.015625 30.8125 32.015625 30.046875 L 32.015625 27.871094 C 32.015625 27.105469 31.605469 26.394531 30.941406 26.015625 " fill-opacity="1" fill-rule="nonzero"/><path fill="#de8c4e" d="M 23.25 27.429688 L 24.65625 27.429688 L 24.65625 30.726562 C 24.65625 31.117188 24.339844 31.433594 23.953125 31.433594 C 23.5625 31.433594 23.25 31.117188 23.25 30.726562 L 23.25 27.429688 " fill-opacity="1" fill-rule="nonzero"/><path fill="#b0564b" d="M 23.25 25.402344 L 24.65625 25.402344 L 24.65625 28.703125 C 24.65625 29.09375 24.339844 29.410156 23.953125 29.410156 C 23.5625 29.410156 23.25 29.09375 23.25 28.703125 L 23.25 25.402344 " fill-opacity="1" fill-rule="nonzero"/><path fill="#f89b2e" d="M 23.25 21.402344 L 20.808594 23.84375 C 20.597656 24.054688 20.597656 24.394531 20.808594 24.605469 C 20.90625 24.707031 21.046875 24.765625 21.1875 24.765625 L 26.722656 24.765625 C 27.023438 24.765625 27.261719 24.523438 27.261719 24.226562 C 27.265625 24.082031 27.207031 23.945312 27.105469 23.84375 L 24.675781 21.402344 C 24.28125 21.007812 23.644531 21.007812 23.25 21.402344 " fill-opacity="1" fill-rule="nonzero"/><path fill="#e44837" d="M 26.910156 10.429688 L 26.910156 10.414062 C 26.804688 10.003906 26.390625 9.757812 25.980469 9.859375 C 25.914062 9.878906 25.847656 9.902344 25.789062 9.941406 L 25.085938 10.339844 C 24.398438 10.734375 23.554688 10.734375 22.867188 10.339844 L 22.136719 9.910156 C 21.808594 9.71875 21.390625 9.796875 21.15625 10.09375 L 21.140625 10.113281 C 20.882812 10.445312 20.941406 10.925781 21.273438 11.1875 C 21.300781 11.207031 21.332031 11.230469 21.363281 11.246094 L 22.09375 11.675781 C 22.230469 11.753906 22.367188 11.824219 22.507812 11.882812 C 22.960938 12.074219 23.253906 12.519531 23.253906 13.011719 C 23.242188 13.394531 23.523438 13.722656 23.90625 13.769531 C 24.300781 13.8125 24.65625 13.519531 24.695312 13.121094 C 24.695312 13.101562 24.699219 13.078125 24.699219 13.054688 L 24.699219 13.023438 C 24.699219 12.535156 24.988281 12.089844 25.441406 11.898438 C 25.582031 11.835938 25.722656 11.769531 25.855469 11.691406 L 26.550781 11.289062 C 26.851562 11.117188 27 10.765625 26.910156 10.429688 " fill-opacity="1" fill-rule="nonzero"/><path fill="#fce29f" d="M 20.734375 17.433594 C 21.175781 17.433594 21.535156 17.792969 21.535156 18.238281 L 21.535156 21.683594 C 21.535156 22.128906 21.175781 22.488281 20.734375 22.488281 C 20.289062 22.488281 19.929688 22.128906 19.929688 21.683594 L 19.929688 18.238281 C 19.929688 17.792969 20.289062 17.433594 20.734375 17.433594 " fill-opacity="1" fill-rule="nonzero"/><path fill="#fce29f" d="M 22.722656 19.15625 C 23.019531 19.15625 23.253906 19.394531 23.253906 19.691406 L 23.253906 20.234375 C 23.253906 20.527344 23.019531 20.765625 22.722656 20.765625 C 22.429688 20.765625 22.195312 20.527344 22.195312 20.234375 L 22.195312 19.691406 C 22.195312 19.394531 22.429688 19.15625 22.722656 19.15625 " fill-opacity="1" fill-rule="nonzero"/><path fill="#bb2e34" d="M 28.390625 7.738281 C 27.675781 7.738281 26.976562 7.925781 26.355469 8.28125 L 24.441406 9.386719 C 24.15625 9.554688 23.804688 9.554688 23.519531 9.386719 L 21.601562 8.28125 C 20.34375 7.554688 18.796875 7.554688 17.539062 8.28125 L 14.605469 9.984375 C 13.347656 10.710938 12.574219 12.054688 12.574219 13.507812 L 12.574219 22.007812 C 12.574219 23.464844 13.347656 24.808594 14.605469 25.535156 L 14.992188 25.761719 C 14.566406 26.378906 14.335938 27.117188 14.335938 27.871094 L 14.335938 30.054688 C 14.335938 31.382812 15.042969 32.605469 16.191406 33.273438 L 16.664062 33.542969 C 16.867188 36.136719 19.023438 38.132812 21.617188 38.136719 L 26.300781 38.136719 C 28.894531 38.132812 31.050781 36.136719 31.253906 33.542969 L 31.726562 33.273438 C 32.875 32.605469 33.582031 31.382812 33.582031 30.054688 L 33.582031 27.871094 C 33.582031 27.125 33.359375 26.398438 32.941406 25.785156 L 33.371094 25.535156 C 34.625 24.808594 35.398438 23.464844 35.398438 22.007812 L 35.398438 13.507812 C 35.398438 12.054688 34.621094 10.710938 33.367188 9.984375 L 30.425781 8.28125 C 29.808594 7.925781 29.105469 7.734375 28.390625 7.738281 Z M 28.390625 9.308594 C 28.828125 9.308594 29.257812 9.425781 29.636719 9.644531 L 32.582031 11.339844 C 33.351562 11.785156 33.828125 12.609375 33.828125 13.503906 L 33.828125 22.007812 C 33.828125 22.902344 33.351562 23.726562 32.582031 24.171875 L 30.167969 25.566406 L 30.941406 26.015625 C 31.601562 26.398438 32.011719 27.105469 32.007812 27.875 L 32.007812 30.054688 C 32.011719 30.824219 31.601562 31.53125 30.941406 31.914062 L 29.695312 32.628906 L 29.695312 33.160156 C 29.695312 35.042969 28.175781 36.566406 26.296875 36.566406 L 21.617188 36.566406 C 19.738281 36.566406 18.21875 35.042969 18.21875 33.160156 L 18.21875 32.628906 L 16.972656 31.914062 C 16.3125 31.53125 15.902344 30.824219 15.90625 30.054688 L 15.90625 27.871094 C 15.902344 27.105469 16.3125 26.394531 16.972656 26.011719 L 17.773438 25.550781 L 15.398438 24.171875 C 14.625 23.726562 14.148438 22.902344 14.148438 22.007812 L 14.148438 13.507812 C 14.148438 12.613281 14.625 11.789062 15.398438 11.339844 L 18.335938 9.640625 C 19.109375 9.191406 20.058594 9.191406 20.832031 9.640625 L 22.746094 10.746094 C 23.515625 11.191406 24.46875 11.191406 25.238281 10.746094 L 27.152344 9.640625 C 27.53125 9.421875 27.957031 9.308594 28.390625 9.308594 " fill-opacity="1" fill-rule="nonzero"/><path fill="#744448" d="M 27.339844 23.671875 L 20.574219 23.671875 C 20.097656 23.671875 19.707031 24.058594 19.707031 24.539062 C 19.707031 24.832031 19.851562 25.105469 20.097656 25.265625 L 20.9375 25.820312 L 21.3125 26.070312 L 23.476562 27.5 C 23.769531 27.695312 24.144531 27.695312 24.433594 27.5 L 24.992188 27.132812 L 26.976562 25.816406 L 27.816406 25.261719 C 28.210938 24.992188 28.320312 24.453125 28.050781 24.054688 C 27.890625 23.816406 27.625 23.671875 27.339844 23.671875 " fill-opacity="1" fill-rule="nonzero"/><path fill="#48303b" d="M 23.472656 27.5 C 23.128906 27.273438 22.921875 26.890625 22.921875 26.476562 L 22.921875 25.703125 C 22.917969 25.148438 22.46875 24.703125 21.917969 24.707031 C 21.910156 24.707031 21.90625 24.707031 21.898438 24.707031 C 21.574219 24.71875 21.277344 24.894531 21.109375 25.171875 C 20.925781 25.480469 21.019531 25.875 21.316406 26.070312 L 23.480469 27.5 C 23.648438 27.617188 23.855469 27.667969 24.058594 27.644531 C 23.851562 27.667969 23.644531 27.617188 23.472656 27.5 " fill-opacity="1" fill-rule="nonzero"/><path fill="#48303b" d="M 25.953125 24.710938 C 25.410156 24.742188 24.984375 25.199219 24.992188 25.746094 L 24.992188 26.46875 C 24.992188 26.890625 24.78125 27.28125 24.429688 27.511719 L 24.988281 27.140625 L 26.605469 26.070312 C 26.898438 25.878906 26.996094 25.496094 26.824219 25.1875 C 26.644531 24.878906 26.3125 24.695312 25.953125 24.710938 " fill-opacity="1" fill-rule="nonzero"/><path fill="#e44837" d="M 31.632812 39.945312 C 31.121094 39.945312 30.707031 39.53125 30.703125 39.019531 C 30.703125 38.707031 30.855469 38.417969 31.113281 38.246094 L 31.683594 37.855469 C 32.097656 37.554688 32.679688 37.648438 32.976562 38.0625 C 33.277344 38.480469 33.1875 39.058594 32.769531 39.359375 C 32.753906 39.371094 32.742188 39.382812 32.726562 39.390625 L 32.152344 39.785156 C 32 39.890625 31.820312 39.945312 31.632812 39.945312 " fill-opacity="1" fill-rule="nonzero"/><path fill="#bb2e34" d="M 33.738281 7.652344 L 33.703125 7.652344 L 32.386719 7.601562 C 31.875 7.582031 31.472656 7.152344 31.492188 6.636719 C 31.511719 6.125 31.945312 5.722656 32.457031 5.742188 L 33.769531 5.792969 C 34.285156 5.800781 34.691406 6.226562 34.683594 6.738281 C 34.671875 7.253906 34.25 7.660156 33.738281 7.652344 " fill-opacity="1" fill-rule="nonzero"/><path fill="#f47822" d="M 17.1875 41.394531 C 17.027344 41.394531 16.871094 41.351562 16.734375 41.273438 L 16.097656 40.917969 C 15.65625 40.65625 15.507812 40.085938 15.769531 39.644531 C 16.019531 39.214844 16.566406 39.0625 17.003906 39.296875 L 17.640625 39.652344 C 18.085938 39.902344 18.246094 40.46875 17.996094 40.917969 C 17.832031 41.210938 17.523438 41.394531 17.1875 41.394531 " fill-opacity="1" fill-rule="nonzero"/><path fill="#f47822" d="M 9.972656 12.277344 C 9.84375 12.277344 9.71875 12.25 9.601562 12.199219 L 8.355469 11.65625 C 7.886719 11.449219 7.671875 10.902344 7.875 10.433594 C 8.082031 9.960938 8.628906 9.746094 9.097656 9.953125 L 10.34375 10.496094 C 10.8125 10.699219 11.027344 11.246094 10.824219 11.71875 C 10.675781 12.058594 10.339844 12.277344 9.972656 12.277344 " fill-opacity="1" fill-rule="nonzero"/><path fill="#f89b2e" d="M 26.574219 28.019531 C 26.921875 28.019531 27.199219 28.296875 27.199219 28.640625 C 27.199219 28.984375 26.921875 29.265625 26.574219 29.265625 C 26.230469 29.265625 25.953125 28.984375 25.953125 28.640625 C 25.953125 28.296875 26.230469 28.019531 26.574219 28.019531 " fill-opacity="1" fill-rule="nonzero"/><path fill="#f47822" d="M 30.207031 28.019531 C 30.550781 28.019531 30.828125 28.296875 30.828125 28.640625 C 30.828125 28.984375 30.550781 29.265625 30.207031 29.265625 C 29.863281 29.265625 29.585938 28.984375 29.585938 28.640625 C 29.585938 28.296875 29.863281 28.019531 30.207031 28.019531 " fill-opacity="1" fill-rule="nonzero"/><path fill="#f89b2e" d="M 28.390625 28.019531 C 28.734375 28.019531 29.015625 28.296875 29.015625 28.640625 C 29.015625 28.984375 28.734375 29.265625 28.390625 29.265625 C 28.046875 29.265625 27.769531 28.984375 27.769531 28.640625 C 27.769531 28.296875 28.046875 28.019531 28.390625 28.019531 " fill-opacity="1" fill-rule="nonzero"/><path fill="#f89b2e" d="M 27.484375 29.574219 C 27.828125 29.574219 28.105469 29.855469 28.105469 30.199219 C 28.105469 30.542969 27.828125 30.824219 27.484375 30.824219 C 27.140625 30.824219 26.863281 30.542969 26.863281 30.199219 C 26.863281 29.855469 27.140625 29.574219 27.484375 29.574219 " fill-opacity="1" fill-rule="nonzero"/><path fill="#f47822" d="M 29.296875 29.574219 C 29.640625 29.574219 29.921875 29.855469 29.921875 30.199219 C 29.921875 30.542969 29.640625 30.824219 29.296875 30.824219 C 28.957031 30.824219 28.675781 30.542969 28.675781 30.199219 C 28.675781 29.855469 28.957031 29.574219 29.296875 29.574219 " fill-opacity="1" fill-rule="nonzero"/><path fill="#f89b2e" d="M 21.335938 28.019531 C 21.679688 28.019531 21.960938 28.296875 21.960938 28.640625 C 21.960938 28.984375 21.679688 29.265625 21.335938 29.265625 C 20.992188 29.265625 20.714844 28.984375 20.714844 28.640625 C 20.714844 28.296875 20.992188 28.019531 21.335938 28.019531 " fill-opacity="1" fill-rule="nonzero"/><path fill="#f89b2e" d="M 17.707031 28.019531 C 18.050781 28.019531 18.328125 28.296875 18.328125 28.640625 C 18.328125 28.984375 18.050781 29.265625 17.707031 29.265625 C 17.363281 29.265625 17.085938 28.984375 17.085938 28.640625 C 17.085938 28.296875 17.363281 28.019531 17.707031 28.019531 " fill-opacity="1" fill-rule="nonzero"/><path fill="#f89b2e" d="M 19.523438 28.019531 C 19.867188 28.019531 20.144531 28.296875 20.144531 28.640625 C 20.144531 28.984375 19.867188 29.265625 19.523438 29.265625 C 19.179688 29.265625 18.898438 28.984375 18.898438 28.640625 C 18.898438 28.296875 19.179688 28.019531 19.523438 28.019531 " fill-opacity="1" fill-rule="nonzero"/><path fill="#f89b2e" d="M 20.429688 29.574219 C 20.773438 29.574219 21.050781 29.855469 21.050781 30.199219 C 21.050781 30.542969 20.773438 30.824219 20.429688 30.824219 C 20.085938 30.824219 19.808594 30.542969 19.808594 30.199219 C 19.808594 29.855469 20.085938 29.574219 20.429688 29.574219 " fill-opacity="1" fill-rule="nonzero"/><path fill="#f89b2e" d="M 18.613281 29.574219 C 18.957031 29.574219 19.238281 29.855469 19.238281 30.199219 C 19.238281 30.542969 18.957031 30.824219 18.613281 30.824219 C 18.269531 30.824219 17.992188 30.542969 17.992188 30.199219 C 17.992188 29.855469 18.269531 29.574219 18.613281 29.574219 " fill-opacity="1" fill-rule="nonzero"/></svg>